<svg id="eTaGbpBXs6F1" xmlns="http://www.w3.org/2000/svg" xmlns:xlink="http://www.w3.org/1999/xlink" viewBox="0 0 110 111" shape-rendering="geometricPrecision" text-rendering="geometricPrecision">
<style><![CDATA[
#eTaGbpBXs6F4_to {animation: eTaGbpBXs6F4_to__to 15000ms linear infinite normal forwards}@keyframes eTaGbpBXs6F4_to__to { 0% {transform: translate(39.427776px,68.699997px)} 73.333333% {transform: translate(39.427776px,68.699997px);animation-timing-function: cubic-bezier(0.6,-0.28,0.735,0.045)} 80.666667% {transform: translate(39.427776px,66.699997px);animation-timing-function: cubic-bezier(0.6,-0.28,0.735,0.045)} 93.333333% {transform: translate(39.427776px,68.699997px)} 100% {transform: translate(39.427776px,68.699997px)}} #eTaGbpBXs6F9_to {animation: eTaGbpBXs6F9_to__to 15000ms linear infinite normal forwards}@keyframes eTaGbpBXs6F9_to__to { 0% {transform: translate(55.658342px,77.25px)} 72% {transform: translate(55.658342px,77.25px);animation-timing-function: cubic-bezier(0.175,0.885,0.32,1.275)} 78.666667% {transform: translate(55.658342px,80.25px);animation-timing-function: cubic-bezier(0.175,0.885,0.32,1.275)} 87.333333% {transform: translate(55.658342px,77.25px)} 100% {transform: translate(55.658342px,77.25px)}} #eTaGbpBXs6F10_tr {animation: eTaGbpBXs6F10_tr__tr 15000ms linear infinite normal forwards}@keyframes eTaGbpBXs6F10_tr__tr { 0% {transform: translate(55.658467px,80.8px) rotate(0deg)} 72% {transform: translate(55.658467px,80.8px) rotate(0deg);animation-timing-function: cubic-bezier(0.6,-0.28,0.735,0.045)} 76.666667% {transform: translate(55.658467px,80.8px) rotate(-5.047308deg);animation-timing-function: cubic-bezier(0.6,-0.28,0.735,0.045)} 82% {transform: translate(55.658467px,80.8px) rotate(5.182621deg);animation-timing-function: cubic-bezier(0.6,-0.28,0.735,0.045)} 86.666667% {transform: translate(55.658467px,80.8px) rotate(0deg)} 100% {transform: translate(55.658467px,80.8px) rotate(0deg)}} #eTaGbpBXs6F15_to {animation: eTaGbpBXs6F15_to__to 15000ms linear infinite normal forwards}@keyframes eTaGbpBXs6F15_to__to { 0% {transform: translate(72.456739px,45.250002px)} 73.333333% {transform: translate(72.456739px,45.250002px);animation-timing-function: cubic-bezier(0.6,-0.28,0.735,0.045)} 89.2% {transform: translate(72.456739px,48.250002px);animation-timing-function: cubic-bezier(0.6,-0.28,0.735,0.045)} 93.333333% {transform: translate(72.456739px,45.250002px)} 100% {transform: translate(72.456739px,45.250002px)}} #eTaGbpBXs6F20_to {animation: eTaGbpBXs6F20_to__to 15000ms linear infinite normal forwards}@keyframes eTaGbpBXs6F20_to__to { 0% {transform: translate(82.658352px,73.25px)} 73.333333% {transform: translate(82.658352px,73.25px);animation-timing-function: cubic-bezier(0.6,-0.28,0.735,0.045)} 89.2% {transform: translate(82.658352px,75.25px);animation-timing-function: cubic-bezier(0.6,-0.28,0.735,0.045)} 93.333333% {transform: translate(82.658352px,73.25px)} 100% {transform: translate(82.658352px,73.25px)}} #eTaGbpBXs6F26_to {animation: eTaGbpBXs6F26_to__to 15000ms linear infinite normal forwards}@keyframes eTaGbpBXs6F26_to__to { 0% {transform: translate(23.999998px,58.300003px)} 73.333333% {transform: translate(23.999998px,58.300003px);animation-timing-function: cubic-bezier(0.6,-0.28,0.735,0.045)} 78.666667% {transform: translate(23.999998px,55.300003px);animation-timing-function: cubic-bezier(0.6,-0.28,0.735,0.045)} 93.333333% {transform: translate(23.999998px,58.300003px)} 100% {transform: translate(23.999998px,58.300003px)}}
]]></style>
<g><circle r="46.2" transform="translate(55 57)" fill="none" stroke="#1c2855" stroke-width="5" stroke-miterlimit="10"/><g id="eTaGbpBXs6F4_to" transform="translate(39.427776,68.699997)"><g transform="translate(-39.427776,-68.699997)"><g><g><path d="M44.7,44.4c0,.3,0,.6.1.8.1,2.9.1,5.4.2,8.3-.6,1.6-.3,2.6.6,2.6.6,0,.9-.4.9-1.2c0-2.1,0-4.1,0-6.2c0-.7.6-1.2,1.3-1.1.5.1.8.5.8,1c0,.3,0,.7,0,1c0,3.1,0,6.1,0,9.2.6-.2,1.2-.3,1.8-.2c0-3.3,0-6.6,0-9.9c0-1.4-.9-2.6-2.3-2.9-.6-.1-1.1-.1-1.7.1c0-.5,0-.9,0-1.4.1-2.5-2.5-3.8-4.5-2.7c0,0,0,0-.1,0-.5-.7-1.2-1-2-1.2h-.9c-.2.1-.4.1-.6.2-.9.4-1.4,1-1.7,1.8-1.2-.1-2.2-.4-3.3.9-.5.6-.8,1.5-.8,2.3c0,1.7,0,3.3,0,5c0,.1,0,.2,0,.3-1.1-.1-2.1-.5-3.3,1.2-.5.7-.7,1.6-.7,2.5c0,2.3-.1,4.6,0,6.9.2,3.6,1.8,6.4,4.6,8.3.5.3,1.1,0,1.2-.6v-.3c0-.3-.1-.5-.3-.7-2-1.4-3.4-3.7-3.6-6.4c0-.2,0-.4,0-.6c0-2.5,0-5,0-7.5c0-.5.4-1,.9-1.1s1,.2,1.2.7c.1.2.1.4.1.6c0,1.5,0,3,0,4.5c0,.6.4,1.1,1,1.1c1.8.1,2.9,1.3,2.9,3.1c0,.4,0,.9,0,1.3c0,.6.4,1,.9,1s.9-.4.9-1c0-.9.1-1.8-.2-2.7-.5-1.8-1.7-2.9-3.5-3.4-.1,0-.1,0-.2-.1v-.2c0-4.1,0-8.2,0-12.3c0-.7.5-1.2,1.2-1.1.5,0,.8.4.9.8c0,.1,0,.3,0,.5c0,2.7,0,5.4,0,8.1c0,.2,0,.4.1.5.1.4.5.6.9.6s.7-.3.8-.7c0-.1,0-.3,0-.5c0-3.4,0-6.7,0-10.1c0-.8.7-1.3,1.4-1.1.5.1.7.5.7,1.1c0,1.3,0,2.6.1,3.9c0,2.1,0,4.1-.1,6.2c0,.6.2,1,.6,1.1.5.2,1.1-.1,1.2-.7c0-.1,0-.3,0-.5c0-3.1,0-6.2,0-9.3c0-.6.4-1.1,1-1.1c1,.3,1.5.7,1.5,1.3Z" fill="#1c2855"/></g></g><path d="M32.7,96.8v0c-.6,0-1-.4-1-1v-27h2v27c0,.5-.4,1-1,1Z" fill="#1c2855"/></g></g><g id="eTaGbpBXs6F9_to" transform="translate(55.658342,77.25)"><g transform="translate(-55.658342,-77.25)"><g id="eTaGbpBXs6F10_tr" transform="translate(55.658467,80.8) rotate(0)"><g transform="translate(-55.658461,-80.799999)"><g><path d="M47,57.9c.6-.1,1.1-.1,1.7.1c0-.5,0-.9,0-1.4-.1-2.5,2.5-3.8,4.5-2.7c0,0,0,0,.1,0c.5-.7,1.2-1,2-1.2h.7c.2.1.4.1.6.2.9.4,1.4,1,1.7,1.8c1.2-.1,2.2-.4,3.3.9.5.6.8,1.5.8,2.3c0,1.7,0,3.3,0,5c0,.1,0,.2,0,.3c1.1-.1,2.1-.5,3.3,1.2.5.7.7,1.6.7,2.5c0,2.3.1,4.6,0,6.9-.2,3.6-1.8,6.4-4.6,8.3-.5.3-1.1,0-1.2-.6v-.3c0-.3.1-.5.3-.7c2-1.4,3.4-3.7,3.6-6.4c0-.2,0-.4,0-.6c0-2.5,0-5,0-7.5c0-.5-.4-1-.9-1.1s-1,.2-1.2.7c-.1.2-.1.4-.1.6c0,1.5,0,3,0,4.5c0,.6-.4,1.1-1,1.1-1.8.1-2.9,1.3-2.9,3.1c0,.4,0,.9,0,1.3c0,.6-.4,1-.9,1s-.9-.4-.9-1c0-.9-.1-1.8.2-2.7.5-1.8,1.7-2.9,3.5-3.4.1,0,.1,0,.2-.1v-.2c0-4.1,0-8.2,0-12.3c0-.7-.5-1.2-1.2-1.1-.5,0-.8.4-.9.8c0,.1,0,.3,0,.5c0,2.7,0,5.4,0,8.1c0,.2,0,.4-.1.5-.1.4-.5.6-.9.6s-.7-.3-.8-.7c0-.1,0-.3,0-.5c0-3.4,0-6.7,0-10.1c0-.8-.7-1.3-1.4-1.1-.5.1-.7.5-.7,1.1c0,1.3,0,2.6-.1,3.9c0,2.1,0,4.1.1,6.2c0,.6-.2,1-.6,1.1-.5.2-1.1-.1-1.2-.7c0-.1,0-.3,0-.5c0-3.1,0-6.2,0-9.3c0-.6-.4-1.1-1-1.1s-1.1.4-1.1,1c0,.3,0,.6-.1.8-.1,2.9-.1,5.4-.2,8.3.6,1.6.3,2.6-.6,2.6-.6,0-.9-.4-.9-1.2c0-2.1,0-4.1,0-6.2c0-.7-.6-1.2-1.3-1.1-.5.1-.8.5-.8,1c0,.3,0,.7,0,1c0,3.9,0,7.7,0,11.6c0,.5.1,4.9,1.1,6.2c1.9,2.3.1,2.2.1,2.2-2.2.2-3-7.8-3-8.3c0-4.2,0-8.4,0-12.6-.2-1.1.7-2.3,2.1-2.6Z" fill="#1c2855"/></g></g></g><path d="M62.5,101.8v0c.6,0,1-.4,1-1v-20h-2v20c0,.5.5,1,1,1Z" fill="#1c2855"/><path d="M47.5,100.8v0c.6,0,1-.4,1-1v-19l-2-2v21c0,.5.5,1,1,1Z" fill="#1c2855"/></g></g><g id="eTaGbpBXs6F15_to" transform="translate(72.456739,45.250002)"><g transform="translate(-72.456739,-45.250002)"><g><g><path d="M81.3,25.9c-.6-.1-1.1-.1-1.7.1c0-.5,0-.9,0-1.4.1-2.5-2.5-3.8-4.5-2.7c0,0,0,0-.1,0-.5-.7-1.2-1-2-1.2h-.9c-.2.1-.4.1-.6.2-.9.4-1.4,1-1.7,1.8-1.2-.1-2.2-.4-3.3.9-.5.6-.8,1.5-.8,2.3c0,1.7,0,3.3,0,5c0,.1,0,.2,0,.3-1.1-.1-2.1-.5-3.3,1.2-.5.7-.7,1.6-.7,2.5c0,2.3-.1,4.6,0,6.9.2,3.6,1.8,6.4,4.6,8.3.5.3,1.1,0,1.2-.6v-.3c0-.3-.1-.5-.3-.7-2-1.4-3.4-3.7-3.6-6.4c0-.2,0-.4,0-.6c0-2.5,0-5,0-7.5c0-.5.4-1,.9-1.1s1,.2,1.2.7c.1.2.1.4.1.6c0,1.5,0,3,0,4.5c0,.6.4,1.1,1,1.1c1.8.1,2.9,1.3,2.9,3.1c0,.4,0,.9,0,1.3c0,.6.4,1,.9,1s.9-.4.9-1c0-.9.1-1.8-.2-2.7-.5-1.8-1.7-2.9-3.5-3.4-.1,0-.1,0-.2-.1v-.2c0-4.1,0-8.2,0-12.3c0-.7.5-1.2,1.2-1.1.5,0,.8.4.9.8c0,.1,0,.3,0,.5c0,2.7,0,5.4,0,8.1c0,.2,0,.4.1.5.1.4.5.6.9.6s.7-.3.8-.7c0-.1,0-.3,0-.5c0-3.4,0-6.7,0-10.1c0-.8.7-1.3,1.4-1.1.5.1.7.5.7,1.1c0,1.3,0,2.6.1,3.9c0,2.1,0,4.1-.1,6.2c0,.6.2,1,.6,1.1.5.2,1.1-.1,1.2-.7c0-.1,0-.3,0-.5c0-3.1,0-6.2,0-9.3c0-.6.4-1.1,1-1.1s1.1.4,1.1,1c0,.3,0,.6.1.8.1,2.9.1,5.4.2,8.3-.6,1.6-.3,2.6.6,2.6.6,0,.9-.4.9-1.2c0-2.1,0-4.1,0-6.2c0-.7.6-1.2,1.3-1.1.5.1.8.5.8,1c0,.3,0,.7,0,1c0,3.9,0,7.7,0,11.6c0,.5-.1,4.9-1.1,6.2-1.9,2.3-.1,2.2-.1,2.2c2.2.2,3-7.8,3-8.3c0-4.2,0-8.4,0-12.6.3-1.1-.6-2.3-1.9-2.6Z" fill="#1c2855"/></g></g><path d="M65.7,69.8v0c-.6,0-1-.4-1-1v-20h2v20c0,.5-.4,1-1,1Z" fill="#1c2855"/></g></g><g id="eTaGbpBXs6F20_to" transform="translate(82.658352,73.25)"><g transform="translate(-82.658352,-73.25)"><g><g><path d="M74,52.9c.6-.1,1.1-.1,1.7.1c0-.5,0-.9,0-1.4-.1-2.5,2.5-3.8,4.5-2.7c0,0,0,0,.1,0c.5-.7,1.2-1,2-1.2h.7c.2.1.4.1.6.2.9.4,1.4,1,1.7,1.8c1.2-.1,2.2-.4,3.3.9.5.6.8,1.5.8,2.3c0,1.7,0,3.3,0,5c0,.1,0,.2,0,.3c1.1-.1,2.1-.5,3.3,1.2.5.7.7,1.6.7,2.5c0,2.3.1,4.6,0,6.9-.2,3.6-1.8,6.4-4.6,8.3-.5.3-1.1,0-1.2-.6v-.3c0-.3.1-.5.3-.7c2-1.4,3.4-3.7,3.6-6.4c0-.2,0-.4,0-.6c0-2.5,0-5,0-7.5c0-.5-.4-1-.9-1.1s-1,.2-1.2.7c-.1.2-.1.4-.1.6c0,1.5,0,3,0,4.5c0,.6-.4,1.1-1,1.1-1.8.1-2.9,1.3-2.9,3.1c0,.4,0,.9,0,1.3c0,.6-.4,1-.9,1s-.9-.4-.9-1c0-.9-.1-1.8.2-2.7.5-1.8,1.7-2.9,3.5-3.4.1,0,.1,0,.2-.1v-.2c0-4.1,0-8.2,0-12.3c0-.7-.5-1.2-1.2-1.1-.5,0-.8.4-.9.8c0,.1,0,.3,0,.5c0,2.7,0,5.4,0,8.1c0,.2,0,.4-.1.5-.1.4-.5.6-.9.6s-.7-.3-.8-.7c0-.1,0-.3,0-.5c0-3.4,0-6.7,0-10.1c0-.8-.7-1.3-1.4-1.1-.5.1-.7.5-.7,1.1c0,1.3,0,2.6-.1,3.9c0,2.1,0,4.1.1,6.2c0,.6-.2,1-.6,1.1-.5.2-1.1-.1-1.2-.7c0-.1,0-.3,0-.5c0-3.1,0-6.2,0-9.3c0-.6-.4-1.1-1-1.1s-1.1.4-1.1,1c0,.3,0,.6-.1.8-.1,2.9-.1,5.4-.2,8.3.6,1.6.3,2.6-.6,2.6-.6,0-.9-.4-.9-1.2c0-2.1,0-4.1,0-6.2c0-.7-.6-1.2-1.3-1.1-.5.1-.8.5-.8,1c0,.3,0,.7,0,1c0,3.9,0,7.7,0,11.6c0,.5.1,4.9,1.1,6.2c1.9,2.3.1,2.2.1,2.2-2.2.2-3-7.8-3-8.3c0-4.2,0-8.4,0-12.6-.2-1.1.7-2.3,2.1-2.6Z" fill="#1c2855"/></g></g><path d="M89.5,86.8v0c.6,0,1-.4,1-1v-10h-2v10c0,.5.5,1,1,1Z" fill="#1c2855"/><path d="M74.5,98.8v0c.6,0,1-.4,1-1v-22l-2-2v24c0,.5.5,1,1,1Z" fill="#1c2855"/></g></g><g id="eTaGbpBXs6F26_to" transform="translate(23.999998,58.300003)"><g transform="translate(-23.999998,-58.300003)"><g><g><path d="M27.6,56.3c0-.4,0-.9,0-1.3c0-1.8,1.1-3,2.9-3.1.6,0,1-.5,1-1.1c0-1.5,0-3,0-4.5c0-.2,0-.4.1-.6.2-.5.7-.8,1.2-.7.4.1.8.4.8.9c0-.7.3-1.4.8-1.9-1-1.1-1.9-.8-2.9-.7c0-.1,0-.2,0-.3c0-1.7,0-3.3,0-5c0-.8-.3-1.6-.8-2.3-1.1-1.4-2.2-1-3.3-.9-.3-.8-.8-1.5-1.7-1.8-.2-.1-.4-.1-.6-.2h-.9c-.8.2-1.5.5-2,1.2c0,0-.1,0-.1,0-2-1.2-4.5.2-4.5,2.7c0,.4,0,.9,0,1.4-.6-.2-1.1-.2-1.7-.1-1.4.3-2.3,1.5-2.3,2.9c0,4.2,0,8.4,0,12.6c0,.4.8,8.4,3,8.3c0,0,1.8.2-.1-2.2-1-1.3-1.1-5.7-1.1-6.2c0-3.9,0-7.7,0-11.6c0-.3,0-.7,0-1c0-.5.3-.9.8-1c.7-.2,1.3.3,1.3,1.1c0,2.1,0,4.1,0,6.2c0,.7.4,1.2.9,1.2.9,0,1.2-1,.6-2.6.1-2.9.1-5.4.2-8.3.1-.3.1-.5.1-.8.1-.6.5-1,1.1-1s1,.5,1,1.1c0,3.1,0,6.2,0,9.3c0,.2,0,.3,0,.5.1.5.7.8,1.2.7.5-.2.7-.5.6-1.1c0-2.1,0-4.1-.1-6.2.1-1.3,0-2.6.1-3.9c0-.5.3-.9.7-1.1.7-.2,1.4.3,1.4,1.1c0,3.4,0,6.7,0,10.1c0,.2,0,.3,0,.5.1.4.4.7.8.7s.8-.2.9-.6c.1-.2.1-.4.1-.5c0-2.7,0-5.4,0-8.1c0-.2,0-.3,0-.5.1-.5.5-.8.9-.8.7-.1,1.2.4,1.2,1.1c0,4.1,0,8.2,0,12.3v.2c-.1,0-.2.1-.2.1-1.8.5-2.9,1.6-3.5,3.4-.3.9-.2,1.8-.2,2.7c0,.6.4,1,.9,1c1-.2,1.4-.7,1.4-1.3Z" fill="#1c2855"/></g></g><path d="M16.5,83.8v0c.6,0,1-.4,1-1v-22l-2-2v24c0,.5.5,1,1,1Z" fill="#1c2855"/></g></g></g></svg>
