<svg id="e2TpUZoVbXK1" xmlns="http://www.w3.org/2000/svg" xmlns:xlink="http://www.w3.org/1999/xlink" viewBox="0 0 110 111" shape-rendering="geometricPrecision" text-rendering="geometricPrecision">
<style><![CDATA[
#e2TpUZoVbXK5 {animation: e2TpUZoVbXK5_c_o 15000ms linear infinite normal forwards}@keyframes e2TpUZoVbXK5_c_o { 0% {opacity: 1} 24.666667% {opacity: 1;animation-timing-function: cubic-bezier(0.55,0.055,0.675,0.19)} 28% {opacity: 0;animation-timing-function: cubic-bezier(0.55,0.055,0.675,0.19)} 32% {opacity: 1;animation-timing-function: cubic-bezier(0.55,0.055,0.675,0.19)} 40% {opacity: 1;animation-timing-function: cubic-bezier(0.55,0.055,0.675,0.19)} 43.333333% {opacity: 0;animation-timing-function: cubic-bezier(0.55,0.055,0.675,0.19)} 47.333333% {opacity: 1} 100% {opacity: 1}} #e2TpUZoVbXK6 {animation: e2TpUZoVbXK6_c_o 15000ms linear infinite normal forwards}@keyframes e2TpUZoVbXK6_c_o { 0% {opacity: 1} 21.333333% {opacity: 1;animation-timing-function: cubic-bezier(0.55,0.055,0.675,0.19)} 24.666667% {opacity: 0;animation-timing-function: cubic-bezier(0.55,0.055,0.675,0.19)} 28.666667% {opacity: 1;animation-timing-function: cubic-bezier(0.55,0.055,0.675,0.19)} 36% {opacity: 1;animation-timing-function: cubic-bezier(0.55,0.055,0.675,0.19)} 39.333333% {opacity: 0;animation-timing-function: cubic-bezier(0.55,0.055,0.675,0.19)} 43.333333% {opacity: 1} 100% {opacity: 1}} #e2TpUZoVbXK7 {animation: e2TpUZoVbXK7_c_o 15000ms linear infinite normal forwards}@keyframes e2TpUZoVbXK7_c_o { 0% {opacity: 1} 20% {opacity: 1;animation-timing-function: cubic-bezier(0.55,0.055,0.675,0.19)} 23.333333% {opacity: 0;animation-timing-function: cubic-bezier(0.55,0.055,0.675,0.19)} 27.333333% {opacity: 1;animation-timing-function: cubic-bezier(0.55,0.055,0.675,0.19)} 35.2% {opacity: 1;animation-timing-function: cubic-bezier(0.55,0.055,0.675,0.19)} 38.533333% {opacity: 0;animation-timing-function: cubic-bezier(0.55,0.055,0.675,0.19)} 42.533333% {opacity: 1} 100% {opacity: 1}}
]]></style>
<g><g><g><path id="e2TpUZoVbXK5" d="M55.6,34.9c11.2.2,21.3,4.2,29.9,12.3.3.3.6.6.9,1c.5.9.3,2.1-.5,2.7-.9.8-2,.6-3-.2-2.1-1.8-4.2-3.7-6.5-5.2-15.2-9.9-35.6-7.9-48.7,4.7-.1.1-.3.3-.4.4-1.1.9-2.3,1-3.2,0-.9-.9-.8-2.3.2-3.2c1.8-1.6,3.5-3.2,5.4-4.6c7.5-5.2,16-7.8,25.9-7.9Z" fill="#1c2855"/><path id="e2TpUZoVbXK6" d="M55.1,47.9c8.1.1,15.2,2.9,21.1,8.5.2.2.4.3.5.5.7.8.7,1.8,0,2.5-.8.7-1.6.6-2.4,0-1.4-1.1-2.6-2.3-4.1-3.3-10.4-7.1-24.5-6-33.7,2.6-.3.3-.6.6-.9.8-.8.5-1.6.5-2.3-.2s-.7-1.5-.1-2.3c.3-.4.8-.8,1.2-1.2c5.8-5.2,12.7-7.8,20.7-7.9Z" fill="#1c2855"/><path id="e2TpUZoVbXK7" d="M55,60.6c4.7.1,8.7,1.6,12.2,4.8c1,.9,1.1,1.8.5,2.5s-1.5.6-2.5-.2c-6-5.4-14.3-5.4-20.3,0-1,.9-1.8,1-2.5.3s-.5-1.6.5-2.6c3.4-3.2,7.4-4.7,12.1-4.8Z" fill="#1c2855"/><path d="M51.6,75.2c0-2.2,1.7-4,3.9-4s3.9,1.7,3.9,3.9-1.8,4-3.9,4c-2.2,0-3.9-1.8-3.9-3.9Z" fill="#1c2855"/></g></g></g><circle r="46.2" transform="translate(55 57)" fill="none" stroke="#1c2855" stroke-width="5" stroke-miterlimit="10"/></svg>
