<svg id="euCcA9jq6Ke1" xmlns="http://www.w3.org/2000/svg" xmlns:xlink="http://www.w3.org/1999/xlink" viewBox="0 0 110 111" shape-rendering="geometricPrecision" text-rendering="geometricPrecision">
<style><![CDATA[
#euCcA9jq6Ke3_ts {animation: euCcA9jq6Ke3_ts__ts 15000ms linear infinite normal forwards}@keyframes euCcA9jq6Ke3_ts__ts { 0% {transform: translate(54.699993px,54.700466px) scale(1,1)} 40% {transform: translate(54.699993px,54.700466px) scale(1,1);animation-timing-function: cubic-bezier(0.6,-0.28,0.735,0.045)} 43.333333% {transform: translate(54.699993px,54.700466px) scale(1.2,1.2);animation-timing-function: cubic-bezier(0.6,-0.28,0.735,0.045)} 46.666667% {transform: translate(54.699993px,54.700466px) scale(1,1)} 50% {transform: translate(54.699993px,54.700466px) scale(1,1);animation-timing-function: cubic-bezier(0.6,-0.28,0.735,0.045)} 53.333333% {transform: translate(54.699993px,54.700466px) scale(1.2,1.2);animation-timing-function: cubic-bezier(0.6,-0.28,0.735,0.045)} 56.666667% {transform: translate(54.699993px,54.700466px) scale(1,1)} 100% {transform: translate(54.699993px,54.700466px) scale(1,1)}}
]]></style>
<circle r="46.2" transform="translate(55 57)" fill="none" stroke="#1c2855" stroke-width="5" stroke-miterlimit="10"/><g id="euCcA9jq6Ke3_ts" transform="translate(54.699993,54.700466) scale(1,1)"><path d="M53.6,68.7L42.3,77c-1.5,1.1-3.5-.4-2.9-2.1l4.3-13.3c.3-.8,0-1.6-.7-2.1L31.7,51.3c-1.5-1.1-.7-3.4,1.1-3.4h14c.8,0,1.5-.5,1.8-1.3l4.3-13.3c.6-1.7,3-1.7,3.6,0l4.3,13.3c.3.8,1,1.3,1.8,1.3h14c1.8,0,2.6,2.3,1.1,3.4L66.4,59.5c-.7.5-.9,1.3-.7,2.1L70,74.9c.6,1.7-1.4,3.2-2.9,2.1" transform="translate(-54.699993,-54.700466)" fill="none" stroke="#1c2855" stroke-width="5" stroke-linecap="round" stroke-miterlimit="10"/></g></svg>
