<?xml version="1.0" encoding="utf-8"?>
<!-- Generator: Adobe Illustrator 25.4.1, SVG Export Plug-In . SVG Version: 6.00 Build 0)  -->
<svg version="1.1" id="Layer_1" xmlns="http://www.w3.org/2000/svg" xmlns:xlink="http://www.w3.org/1999/xlink" x="0px" y="0px"
	 viewBox="0 0 32 32" style="enable-background:new 0 0 32 32;" xml:space="preserve">
<style type="text/css">
	.st0{fill:#FFFFFF;}
</style>
<path class="st0" d="M20.5,9.7l-2.3,0c-0.5,0-0.9-0.4-0.9-0.9l0-2.3c0-0.5-0.4-0.9-0.9-0.9l-0.9,0c-0.5,0-0.9,0.4-0.9,0.9l0,2.3
	c0,0.5-0.4,0.9-0.9,0.9l-2.3,0c-0.5,0-0.9,0.4-0.9,0.9l0,0.9c0,0.5,0.4,0.9,0.9,0.9l2.3,0c0.5,0,0.9,0.4,0.9,0.9l0,2.3
	c0,0.5,0.4,0.9,0.9,0.9l0.9,0c0.5,0,0.9-0.4,0.9-0.9l0-2.3c0-0.5,0.4-0.9,0.9-0.9l2.3,0c0.5,0,0.9-0.4,0.9-0.9l0-0.9
	C21.3,10.1,21,9.7,20.5,9.7z"/>
</svg>
