<?xml version="1.0" encoding="utf-8"?>
<!-- Generator: Adobe Illustrator 25.4.1, SVG Export Plug-In . SVG Version: 6.00 Build 0)  -->
<svg version="1.1" id="Layer_1" xmlns="http://www.w3.org/2000/svg" xmlns:xlink="http://www.w3.org/1999/xlink" x="0px" y="0px"
	 viewBox="0 0 1678.9 340.2" style="enable-background:new 0 0 1678.9 340.2;" xml:space="preserve">
<style type="text/css">
	.st0{fill:#00ABE4;}
	.st1{fill:#182852;}
</style>
<g>
	<path class="st0" d="M436,129.9c1.8,1.1,3.4,2.6,4.8,4.4c1.4,1.8,2.6,3.8,3.6,6.1c4.3-3.1,9.5-5.8,15.6-8.1
		c6.1-2.3,12.2-3.5,18.3-3.5c6.4,0,12.2,0.9,17.3,2.8c5.1,1.9,9.5,5.2,13.3,9.9c5.6-3.9,11.5-7,17.9-9.3c6.4-2.3,12.6-3.5,18.7-3.5
		c11.7,0,20.7,3,26.8,9.1c6.1,6.1,9.2,14.6,9.2,25.4v49.2c0,2.7,0.2,5,0.5,7c0.3,2,0.7,3.7,1.2,4.9c1.8,0.1,3.8,0.3,6,0.4
		c2.2,0.1,4.4,0.2,6.8,0.2c1,0,1.7,0.3,2.3,0.8c0.6,0.6,0.8,1.3,0.8,2.3v1c0,0.8-0.2,1.6-0.5,2.2c-0.4,0.6-0.9,1.2-1.8,1.6
		c-1.4,0.6-3,1.1-4.9,1.7c-1.9,0.6-3.9,0.8-6.2,0.8c-4.9,0-8.7-1.5-11.5-4.5c-2.8-3-4.2-7.1-4.2-12.2v-51.3c0-9.4-2.3-16.2-6.9-20.6
		s-11-6.6-19.3-6.6c-5.2,0-10.5,0.9-15.9,2.7c-5.4,1.8-10.3,4.1-14.7,6.7c0.6,1.4,1,3.2,1.3,5.5c0.3,2.3,0.4,4.6,0.4,7v68.1
		c0,1-0.3,1.7-0.8,2.3c-0.6,0.6-1.3,0.8-2.3,0.8h-5.2c-1,0-1.7-0.3-2.3-0.8c-0.6-0.6-0.8-1.3-0.8-2.3v-64.9c0-8.7-2.2-15-6.5-19.1
		c-4.3-4-11.3-6.1-20.9-6.1c-5.2,0-10.1,0.8-14.9,2.3c-4.7,1.5-9.7,3.6-14.9,6.1c0.1,1.5,0.3,3.6,0.6,6.1c0.3,2.5,0.4,5,0.4,7.5
		v68.1c0,1-0.3,1.7-0.8,2.3c-0.6,0.6-1.3,0.8-2.3,0.8h-5.2c-1,0-1.7-0.3-2.3-0.8c-0.6-0.6-0.8-1.3-0.8-2.3v-65.1
		c0-6.8-0.6-12.2-1.9-16.1c-1.3-3.9-3.4-7.6-6.5-11.1c-0.6-0.7-0.8-1.4-0.8-2.2c0-0.8,0.4-1.5,1.3-2.2l4-3.4c0.6-0.6,1.2-0.9,2-1
		C434.5,129.1,435.3,129.3,436,129.9z"/>
	<path class="st0" d="M663.6,128.8c7.5,0,14.2,1.3,20.1,3.9c5.9,2.6,10.8,6.2,14.8,10.8c4,4.6,7,10.2,9.1,16.8
		c2.1,6.6,3.1,13.8,3.1,21.6c0,16.8-4.1,29.9-12.4,39.5c-8.2,9.6-19.8,14.3-34.8,14.3c-14.9,0-26.5-5-34.5-15
		c-8.1-10-12.1-23.3-12.1-40.1c0-15.8,4-28.3,12.1-37.7C637.1,133.5,648.6,128.8,663.6,128.8z M663.2,140.4c-4.3,0-8.6,0.5-12.9,1.6
		c-4.3,1-7.9,2.6-11,4.7c-3.1,3.9-5.5,8.9-7.4,15c-1.9,6.1-2.8,12.7-2.8,20c0,5.7,0.6,11.2,1.9,16.4c1.3,5.2,3.3,9.8,6.2,13.6
		c2.9,3.8,6.6,6.9,11.1,9.1c4.5,2.2,10,3.3,16.4,3.3c4.6,0,8.9-0.5,13-1.6c4-1,7.6-2.5,10.7-4.3c3.5-3.9,6.1-9,7.7-15.3
		c1.7-6.3,2.5-13,2.5-20.1c0-5.7-0.6-11.2-1.9-16.4c-1.3-5.2-3.3-9.8-6.1-13.6c-2.8-3.8-6.5-6.9-11-9.1
		C675.1,141.5,669.6,140.4,663.2,140.4z"/>
	<path class="st0" d="M746.7,129.9c1.8,1.1,3.4,2.6,4.8,4.4c1.4,1.8,2.6,3.8,3.6,6.1c4.6-3.1,10.2-5.8,16.6-8.1
		c6.5-2.3,12.8-3.5,19-3.5c12.1,0,21.4,3,27.8,9.1c6.4,6.1,9.6,14.6,9.6,25.4v49.2c0,2.7,0.1,5,0.4,7c0.3,2,0.6,3.7,1,4.9
		c1.8,0.1,3.8,0.3,6,0.4c2.2,0.1,4.4,0.2,6.8,0.2c1,0,1.7,0.3,2.3,0.8c0.6,0.6,0.8,1.3,0.8,2.3v1c0,0.8-0.2,1.6-0.5,2.2
		c-0.3,0.6-0.9,1.2-1.6,1.6c-1.4,0.6-3.1,1.1-5,1.7c-2,0.6-4.1,0.8-6.3,0.8c-4.9,0-8.7-1.5-11.4-4.5c-2.7-3-4.1-7.1-4.1-12.2v-51.3
		c0-9.4-2.4-16.2-7.2-20.6c-4.8-4.4-12-6.6-21.7-6.6c-4.9,0-9.9,0.7-15,2.2c-5.1,1.5-10.4,3.5-15.8,6.2c0.1,1.5,0.3,3.6,0.6,6.1
		c0.3,2.5,0.4,5,0.4,7.5v68.1c0,1-0.3,1.7-0.8,2.3c-0.6,0.6-1.3,0.8-2.3,0.8h-5.2c-1,0-1.7-0.3-2.3-0.8c-0.6-0.6-0.8-1.3-0.8-2.3
		v-65.1c0-6.8-0.6-12.2-1.9-16.1c-1.3-3.9-3.4-7.6-6.5-11.1c-0.6-0.7-0.8-1.4-0.8-2.2c0-0.8,0.4-1.5,1.3-2.2l4-3.4
		c0.6-0.6,1.2-0.9,2-1C745.3,129.1,746,129.3,746.7,129.9z"/>
	<path class="st0" d="M955.9,233.1c-1.4,0.6-3,1.1-4.9,1.7c-1.9,0.6-3.9,0.8-6.2,0.8c-5.2,0-9.4-1.2-12.8-3.7
		c-3.3-2.4-6.4-6.2-9-11.4l-18.4-35h-22.8v44.8c0,1-0.3,1.7-0.8,2.3c-0.6,0.6-1.3,0.8-2.3,0.8h-5.2c-1,0-1.7-0.3-2.3-0.8
		c-0.6-0.6-0.8-1.3-0.8-2.3V85.7c0-1,0.2-1.7,0.7-2.3c0.5-0.6,1.2-0.9,2.2-1l5.2-1c1-0.1,1.8,0.1,2.4,0.6c0.6,0.6,0.9,1.3,0.9,2.3
		v90.9h24.7c4.7-4.7,9.7-9.7,14.9-15c5.2-5.2,9.1-9.2,11.7-11.8v-14.7c0-1,0.2-1.7,0.7-2.3c0.5-0.6,1.2-0.9,2-1l3.8-0.8
		c0.8-0.1,1.6-0.1,2.3,0.1c0.7,0.2,1.2,0.6,1.5,1.2c0.6,1.3,1.1,2.7,1.7,4.4c0.6,1.7,0.8,3.4,0.8,5.2c0,4.9-1.3,8.7-3.8,11.5
		c-2.5,2.8-5.7,6.3-9.6,10.5l-17.4,18l16.3,30.2c1.5,3.1,2.9,5.7,4.2,7.9c1.3,2.2,2.7,4.2,4.2,6c2.7,0.1,5.2,0.3,7.6,0.5
		c2.4,0.2,4.9,0.3,7.4,0.3c1,0,1.7,0.3,2.3,0.8c0.6,0.6,0.8,1.3,0.8,2.3v1c0,0.8-0.2,1.6-0.5,2.2
		C957.1,232.2,956.6,232.7,955.9,233.1z"/>
	<path class="st0" d="M968.7,280.4c-1,0.4-1.8,0.5-2.4,0.3c-0.6-0.2-1.2-0.7-1.8-1.6l-1.7-2.7c-0.6-1-0.7-1.8-0.5-2.5
		c0.2-0.7,0.7-1.3,1.6-1.9c3.9-2.4,7.7-4.9,11.5-7.6c3.8-2.7,7.1-5.3,10.1-7.6c1.3-1.8,3.1-4.9,5.4-9.3c2.4-4.4,4.9-9.2,7.5-14.3
		l-37.7-98c-0.4-1-0.4-1.8,0-2.5c0.4-0.7,1.1-1.1,2.1-1.3l5.2-1c1-0.1,1.8,0,2.4,0.4s1.1,1,1.4,1.9l33.7,86.5l9.8-18.8
		c4.3-8.4,8.4-16.7,12.1-24.9c3.8-8.2,6.7-15.4,8.8-21.4c0-4.3-0.2-8-0.6-10.9c-0.4-2.9-0.9-5.9-1.5-9c-0.1-1,0-1.8,0.3-2.5
		c0.3-0.7,1-1.1,2-1.3l4.4-0.8c0.8-0.1,1.6-0.1,2.3,0.1c0.7,0.2,1.3,0.6,1.7,1.2c1.1,1.5,2.1,3.4,3,5.7c0.9,2.2,1.4,4.7,1.4,7.5
		c0,5-1.8,11.8-5.3,20.4s-7.5,17.3-11.8,26.1l-30.4,59.9c-1.8,3.6-3.6,6.8-5.3,9.6c-1.7,2.8-3.8,5.3-6.2,7.5
		c-2.4,2.2-5.3,4.4-8.7,6.5C978.1,276,973.8,278.2,968.7,280.4z"/>
	<path class="st0" d="M1079.4,129.9c1.8,1.1,3.4,2.6,4.8,4.4c1.4,1.8,2.6,3.8,3.6,6.1c4.3-3.1,9.5-5.8,15.6-8.1
		c6.1-2.3,12.2-3.5,18.3-3.5c6.4,0,12.2,0.9,17.3,2.8c5.1,1.9,9.5,5.2,13.3,9.9c5.6-3.9,11.5-7,17.9-9.3c6.4-2.3,12.6-3.5,18.7-3.5
		c11.7,0,20.7,3,26.8,9.1c6.1,6.1,9.2,14.6,9.2,25.4v49.2c0,2.7,0.2,5,0.5,7c0.3,2,0.7,3.7,1.2,4.9c1.8,0.1,3.8,0.3,6,0.4
		c2.2,0.1,4.4,0.2,6.8,0.2c1,0,1.7,0.3,2.3,0.8c0.6,0.6,0.8,1.3,0.8,2.3v1c0,0.8-0.2,1.6-0.5,2.2c-0.4,0.6-0.9,1.2-1.8,1.6
		c-1.4,0.6-3,1.1-4.9,1.7c-1.9,0.6-3.9,0.8-6.2,0.8c-4.9,0-8.7-1.5-11.5-4.5c-2.8-3-4.2-7.1-4.2-12.2v-51.3c0-9.4-2.3-16.2-6.9-20.6
		s-11-6.6-19.3-6.6c-5.2,0-10.5,0.9-15.9,2.7c-5.4,1.8-10.3,4.1-14.7,6.7c0.6,1.4,1,3.2,1.3,5.5c0.3,2.3,0.4,4.6,0.4,7v68.1
		c0,1-0.3,1.7-0.8,2.3c-0.6,0.6-1.3,0.8-2.3,0.8h-5.2c-1,0-1.7-0.3-2.3-0.8c-0.6-0.6-0.8-1.3-0.8-2.3v-64.9c0-8.7-2.2-15-6.5-19.1
		c-4.3-4-11.3-6.1-20.9-6.1c-5.2,0-10.1,0.8-14.9,2.3c-4.7,1.5-9.7,3.6-14.9,6.1c0.1,1.5,0.3,3.6,0.6,6.1c0.3,2.5,0.4,5,0.4,7.5
		v68.1c0,1-0.3,1.7-0.8,2.3c-0.6,0.6-1.3,0.8-2.3,0.8h-5.2c-1,0-1.7-0.3-2.3-0.8c-0.6-0.6-0.8-1.3-0.8-2.3v-65.1
		c0-6.8-0.6-12.2-1.9-16.1c-1.3-3.9-3.4-7.6-6.5-11.1c-0.6-0.7-0.8-1.4-0.8-2.2c0-0.8,0.4-1.5,1.3-2.2l4-3.4c0.6-0.6,1.2-0.9,2-1
		C1078,129.1,1078.7,129.3,1079.4,129.9z"/>
	<path class="st0" d="M1306.8,235.6c-14.9,0-26.4-4.8-34.4-14.3c-8-9.6-12-22.2-12-38c0-16.6,4.1-29.8,12.4-39.7
		c8.2-9.8,19.8-14.8,34.8-14.8c10.9,0,19.8,3.2,26.7,9.5c6.9,6.4,10.4,15.7,10.4,28c0,2.1-0.1,4.4-0.3,6.8c-0.2,2.4-0.7,5.1-1.4,7.9
		c-0.1,1-0.5,1.7-1,2.1c-0.6,0.4-1.3,0.6-2.3,0.6l-67,1c0,5.4,0.7,10.6,2,15.4c1.3,4.8,3.4,9,6.3,12.5c2.9,3.5,6.6,6.3,11.1,8.4
		c4.5,2.1,10,3.1,16.4,3.1c5.6,0,10.7-0.7,15.3-2c4.6-1.3,8.9-3,12.8-4.9c0.8-0.4,1.6-0.5,2.4-0.3c0.8,0.2,1.4,0.8,1.8,1.8l1,2.3
		c0.4,0.8,0.6,1.6,0.4,2.4c-0.1,0.8-0.6,1.4-1.3,2c-3.5,2.7-8.2,5-14,7.1C1320.8,234.6,1314.2,235.6,1306.8,235.6z M1282.7,146.6
		c-3.1,3.9-5.4,8.3-6.9,13.2c-1.5,4.9-2.5,10.1-2.9,15.5l58.6-1.7c0.3-1.4,0.5-2.7,0.6-3.9c0.1-1.2,0.2-2.4,0.2-3.7
		c0-7.3-2-13.4-6.1-18.3c-4.1-5-10.5-7.4-19.3-7.4c-4.5,0-8.8,0.5-13.1,1.6C1289.7,143,1285.9,144.5,1282.7,146.6z"/>
	<path class="st0" d="M1435.8,225.4c-2.9,2.7-6.6,5-11.1,7.1c-4.5,2.1-9.8,3.1-16.1,3.1c-8.4,0-15.5-2.5-21.3-7.5
		c-5.8-5-8.7-13.5-8.7-25.5v-59h-15.3c-1,0-1.7-0.3-2.3-0.8c-0.6-0.6-0.8-1.3-0.8-2.3v-2.3c0-1,0.2-1.7,0.7-2.3
		c0.5-0.6,1.2-0.9,2.2-1l15.5-1.7v-2.1l1.9-20.3c0.1-0.8,0.5-1.6,0.9-2.2c0.5-0.6,1.2-1,2-1.2l3.3-0.6c1-0.1,1.8,0,2.4,0.5
		c0.6,0.5,0.9,1.2,0.9,2.2V133h37.5c1,0,1.7,0.3,2.3,0.8c0.6,0.6,0.8,1.3,0.8,2.3v4.2c0,1-0.3,1.7-0.8,2.3c-0.6,0.6-1.3,0.8-2.3,0.8
		h-37.5V200c0,8.9,1.8,15.2,5.5,18.7c3.7,3.6,8.7,5.3,15,5.3c4.3,0,8.1-0.6,11.2-1.9c3.1-1.3,5.9-2.7,8.3-4.4
		c0.8-0.6,1.6-0.7,2.4-0.5c0.8,0.2,1.4,0.7,2,1.4l1.7,2.3c0.6,0.7,0.8,1.4,0.7,2.2C1436.9,223.9,1436.5,224.7,1435.8,225.4z"/>
	<path class="st0" d="M1498.8,235.6c-14.9,0-26.4-4.8-34.4-14.3c-8-9.6-12-22.2-12-38c0-16.6,4.1-29.8,12.4-39.7
		c8.2-9.8,19.8-14.8,34.8-14.8c10.9,0,19.8,3.2,26.7,9.5c6.9,6.4,10.4,15.7,10.4,28c0,2.1-0.1,4.4-0.3,6.8c-0.2,2.4-0.7,5.1-1.4,7.9
		c-0.1,1-0.5,1.7-1,2.1c-0.6,0.4-1.3,0.6-2.3,0.6l-67,1c0,5.4,0.7,10.6,2,15.4c1.3,4.8,3.4,9,6.3,12.5c2.9,3.5,6.6,6.3,11.1,8.4
		c4.5,2.1,10,3.1,16.4,3.1c5.6,0,10.7-0.7,15.3-2c4.6-1.3,8.9-3,12.8-4.9c0.8-0.4,1.6-0.5,2.4-0.3c0.8,0.2,1.4,0.8,1.8,1.8l1,2.3
		c0.4,0.8,0.6,1.6,0.4,2.4c-0.1,0.8-0.6,1.4-1.3,2c-3.5,2.7-8.2,5-14,7.1C1512.9,234.6,1506.2,235.6,1498.8,235.6z M1474.7,146.6
		c-3.1,3.9-5.4,8.3-6.9,13.2c-1.5,4.9-2.5,10.1-2.9,15.5l58.6-1.7c0.3-1.4,0.5-2.7,0.6-3.9c0.1-1.2,0.2-2.4,0.2-3.7
		c0-7.3-2-13.4-6.1-18.3c-4.1-5-10.5-7.4-19.3-7.4c-4.5,0-8.8,0.5-13.1,1.6C1481.7,143,1478,144.5,1474.7,146.6z"/>
	<path class="st0" d="M1583.8,230.4c0,1-0.3,1.7-0.8,2.3c-0.6,0.6-1.3,0.8-2.3,0.8h-5.2c-1,0-1.7-0.3-2.3-0.8
		c-0.6-0.6-0.8-1.3-0.8-2.3v-65.1c0-6.8-0.6-12.2-1.9-16.1c-1.3-3.9-3.4-7.6-6.5-11.1c-0.6-0.7-0.8-1.4-0.8-2.2
		c0-0.8,0.4-1.5,1.3-2.2l4-3.4c0.7-0.6,1.3-0.9,1.9-1c0.6-0.1,1-0.1,1.5,0.2c2.7,1.8,4.9,4.1,6.7,6.9c1.8,2.8,3.2,6.4,4.2,10.7
		c6.4-5.4,12.1-9.8,17.1-13.2c5-3.4,10-5,15.2-5c1.8,0,3.5,0.3,5.1,0.8c1.6,0.6,3,1.2,4.1,1.9c0.6,0.6,0.9,1.2,1.2,1.8
		c0.2,0.6,0.2,1.4,0.1,2.2l-1,5.2c-0.1,1-0.5,1.7-1.2,2.1c-0.6,0.4-1.4,0.6-2.4,0.6h-15.5c-3.6,1.8-7.3,3.8-11,6
		c-3.7,2.2-7.2,4.5-10.6,7c0.1,0.8,0.2,1.7,0.2,2.6c0,0.9,0,1.9,0,2.8V230.4z"/>
</g>
<g>
	<path class="st1" d="M186.7,61.9c0.2,0,0.5,0,0.7,0c7.7-0.9,15.7-1,23.4-0.4c3.3,0.3,6.2-2.2,6.5-5.5s-2.2-6.2-5.5-6.5
		c-8.5-0.7-17.2-0.5-25.7,0.5c-3.3,0.4-5.7,3.4-5.3,6.6C181.1,59.6,183.7,61.9,186.7,61.9z"/>
	<path class="st1" d="M386.1,155c0-34.1-27.7-61.8-61.8-61.8c-7.4,0-14.6,1.3-21.4,3.8c-16.9-20.5-39.9-35.6-65.3-42.9
		c-3.2-0.9-6.5,0.9-7.4,4.1c-0.9,3.2,0.9,6.5,4.1,7.4c24.5,7,46.5,22.1,62.1,42.4c16.1,21,24.6,46.1,24.6,72.6
		c0,46.1-26.2,86.2-64.6,106.2c9.2-11.8,14.1-26.3,14.1-41.6c0-1.9-0.1-3.8-0.2-5.7c-0.4-5.2,1.9-10.1,6-12.9
		c17.6-11.8,27.7-32.2,26.4-53.4c-0.9-14.6-7.2-28.3-17.7-38.7c-10.5-10.4-24.4-16.4-39-17.1c-10.9-0.5-21.7,1.9-31.2,7.1
		c-6.9,3.7-15.1,3.7-21.9,0c-9.5-5.2-20.3-7.6-31.2-7.1c-30.4,1.4-55.3,26.3-56.7,56.7c-0.9,19.9,8.1,38.8,24,50.7
		c3.9,2.9,6,7.9,5.5,12.9c-0.4,3.9-0.5,7.9-0.3,11.8c0.9,14.3,6.4,27.9,15.5,38.9c-40.2-19.3-68.1-60.4-68.1-108
		c0-26.2,8.3-51,24-71.8c15.2-20.2,36.7-35.3,60.7-42.6c3.2-1,5-4.3,4-7.5s-4.3-5-7.5-4c-24.3,7.4-46.3,22.1-62.7,41.7
		c-6.4-2.2-13-3.3-19.9-3.3c-34.1,0-61.8,27.7-61.8,61.8c0,32.2,24.7,58.7,56.2,61.6c14.3,50.3,57.8,88.4,110.9,94.8
		c4.6,1.2,9.2,1.9,14,2.1c0.9,0,1.9,0.1,2.8,0.1c6.6,0,13-0.9,19.1-2.7c51.1-7.9,92.5-45.2,106.5-94
		C360.3,214.9,386.1,187.9,386.1,155z M30.4,155c0-27.5,22.4-49.8,49.8-49.8c4.1,0,8.2,0.5,12.1,1.5c-14.9,21.9-22.8,47.3-22.8,74
		c0,8,0.7,15.8,2.1,23.5C48.2,200.1,30.4,179.6,30.4,155z M146.2,248.9c-0.2-3.3-0.1-6.5,0.2-9.7c1-9.3-2.9-18.4-10.2-23.9
		c-12.8-9.5-19.9-24.6-19.2-40.5c1.1-24.3,21-44.2,45.3-45.3c0.8,0,1.5-0.1,2.3-0.1c7.9,0,15.7,2,22.7,5.7c10.4,5.7,22.9,5.7,33.3,0
		c7.6-4.1,16.2-6.1,24.9-5.7c23.9,1.1,43.8,20.7,45.3,44.6c1.1,17.2-6.8,33.1-21.1,42.6c-7.8,5.2-12.1,14.4-11.3,23.9
		c0.1,1.5,0.2,3.1,0.2,4.7c0,15.4-6.1,29.8-17.3,40.5c-6.5,6.2-14.2,10.7-22.5,13.2c-5.7,0.8-11.5,1.3-17.4,1.3
		c-4.5,0-9-0.3-13.4-0.8C165.1,293.4,147.7,273.1,146.2,248.9z M330.7,204.4c1.4-7.7,2.2-15.7,2.2-23.8c0-26.5-7.8-51.8-22.5-73.5
		c4.5-1.3,9.1-2,13.8-2c27.5,0,49.8,22.4,49.8,49.8C374.1,180.3,355.1,201.3,330.7,204.4z"/>
	<path class="st1" d="M334,126.7c-3.3,0-6,2.7-6,6s2.7,6,6,6c9,0,16.3,7.3,16.3,16.3c0,4.4-1.7,8.5-4.8,11.5c-2.3,2.3-2.3,6.1,0,8.5
		c1.2,1.2,2.7,1.8,4.2,1.8s3.1-0.6,4.2-1.8c5.4-5.3,8.3-12.5,8.3-20C362.3,139.4,349.6,126.7,334,126.7z"/>
	<path class="st1" d="M54.1,155c0-9,7.3-16.3,16.3-16.3c3.3,0,6-2.7,6-6s-2.7-6-6-6c-15.6,0-28.3,12.7-28.3,28.3
		c0,7.6,2.9,14.7,8.3,20c1.2,1.2,2.7,1.8,4.2,1.8s3.1-0.6,4.2-1.8c2.3-2.3,2.3-6.1,0-8.5C55.8,163.5,54.1,159.4,54.1,155z"/>
	<path class="st1" d="M157.7,164.6c-10.2,0-18.5,8.3-18.5,18.5c0,3.3,2.7,6,6,6s6-2.7,6-6c0-3.6,2.9-6.5,6.5-6.5
		c3.6,0,6.5,2.9,6.5,6.5c0,3.3,2.7,6,6,6s6-2.7,6-6C176.2,172.9,167.9,164.6,157.7,164.6z"/>
	<path class="st1" d="M233.2,189.1c3.3,0,6-2.7,6-6c0-3.6,2.9-6.5,6.5-6.5c3.6,0,6.5,2.9,6.5,6.5c0,3.3,2.7,6,6,6s6-2.7,6-6
		c0-10.2-8.3-18.5-18.5-18.5s-18.5,8.3-18.5,18.5C227.2,186.4,229.9,189.1,233.2,189.1z"/>
	<path class="st1" d="M209.8,246c0-3.6,2.9-6.5,6.5-6.5c3.3,0,6-2.7,6-6s-2.7-6-6-6c-4.8,0-9.2,1.9-12.5,4.9
		c-3.3-3-7.7-4.9-12.5-4.9c-3.3,0-6,2.7-6,6s2.7,6,6,6c3.6,0,6.5,2.9,6.5,6.5c0,3.3,2.7,6,6,6S209.8,249.3,209.8,246z"/>
</g>
</svg>
