<?xml version="1.0" encoding="utf-8"?>
<!-- Generator: Adobe Illustrator 25.4.1, SVG Export Plug-In . SVG Version: 6.00 Build 0)  -->
<svg version="1.1" id="Layer_1" xmlns="http://www.w3.org/2000/svg" xmlns:xlink="http://www.w3.org/1999/xlink" x="0px" y="0px"
	 viewBox="0 0 404 93" style="enable-background:new 0 0 404 93;" xml:space="preserve">
<style type="text/css">
	.st0{fill:#FFFFFF;}
</style>
<g>
	<g>
		<path class="st0" d="M123.2,38.9c0.4,0.2,0.7,0.6,1,0.9c0.3,0.4,0.6,0.8,0.8,1.3c0.9-0.7,2.1-1.2,3.4-1.7c1.3-0.5,2.6-0.7,4-0.7
			s2.6,0.2,3.7,0.6c1.1,0.4,2.1,1.1,2.9,2.1c1.2-0.8,2.5-1.5,3.9-2s2.7-0.7,4-0.7c2.5,0,4.5,0.7,5.8,2s2,3.1,2,5.5v10.6
			c0,0.6,0,1.1,0.1,1.5s0.2,0.8,0.2,1.1c0.4,0,0.8,0.1,1.3,0.1s1,0,1.5,0c0.2,0,0.4,0.1,0.5,0.2c0.1,0.1,0.2,0.3,0.2,0.5v0.2
			c0,0.2,0,0.3-0.1,0.5c-0.1,0.1-0.2,0.2-0.4,0.3c-0.3,0.1-0.7,0.2-1.1,0.4c-0.4,0.1-0.9,0.2-1.3,0.2c-1.1,0-1.9-0.3-2.5-1
			c-0.6-0.6-0.9-1.5-0.9-2.6V47.1c0-2-0.5-3.5-1.5-4.5c-1-0.9-2.4-1.4-4.2-1.4c-1.1,0-2.3,0.2-3.4,0.6c-1.2,0.4-2.2,0.9-3.2,1.4
			c0.1,0.3,0.2,0.7,0.3,1.2s0.1,1,0.1,1.5v14.7c0,0.2-0.1,0.4-0.2,0.5c-0.1,0.1-0.3,0.2-0.5,0.2h-1.1c-0.2,0-0.4-0.1-0.5-0.2
			c-0.1-0.1-0.2-0.3-0.2-0.5v-14c0-1.9-0.5-3.2-1.4-4.1c-0.9-0.9-2.4-1.3-4.5-1.3c-1.1,0-2.2,0.2-3.2,0.5s-2.1,0.8-3.2,1.3
			c0,0.3,0.1,0.8,0.1,1.3c0.1,0.5,0.1,1.1,0.1,1.6v14.7c0,0.2-0.1,0.4-0.2,0.5s-0.3,0.2-0.5,0.2h-1.1c-0.2,0-0.4-0.1-0.5-0.2
			c-0.1-0.1-0.2-0.3-0.2-0.5v-14c0-1.5-0.1-2.6-0.4-3.5c-0.3-0.8-0.7-1.6-1.4-2.4c-0.1-0.2-0.2-0.3-0.2-0.5s0.1-0.3,0.3-0.5l0.9-0.7
			c0.1-0.1,0.3-0.2,0.4-0.2C122.9,38.8,123,38.8,123.2,38.9z"/>
		<path class="st0" d="M172.3,38.7c1.6,0,3.1,0.3,4.3,0.8c1.3,0.6,2.3,1.3,3.2,2.3s1.5,2.2,2,3.6c0.5,1.4,0.7,3,0.7,4.7
			c0,3.6-0.9,6.5-2.7,8.5c-1.8,2.1-4.3,3.1-7.5,3.1s-5.7-1.1-7.5-3.2c-1.7-2.2-2.6-5-2.6-8.7c0-3.4,0.9-6.1,2.6-8.1
			C166.6,39.7,169.1,38.7,172.3,38.7z M172.2,41.2c-0.9,0-1.9,0.1-2.8,0.3c-0.9,0.2-1.7,0.6-2.4,1c-0.7,0.8-1.2,1.9-1.6,3.2
			c-0.4,1.3-0.6,2.8-0.6,4.3c0,1.2,0.1,2.4,0.4,3.5c0.3,1.1,0.7,2.1,1.3,2.9c0.6,0.8,1.4,1.5,2.4,2s2.2,0.7,3.5,0.7
			c1,0,1.9-0.1,2.8-0.3c0.9-0.2,1.6-0.5,2.3-0.9c0.8-0.8,1.3-1.9,1.7-3.3c0.4-1.4,0.5-2.8,0.5-4.3c0-1.2-0.1-2.4-0.4-3.5
			c-0.3-1.1-0.7-2.1-1.3-2.9c-0.6-0.8-1.4-1.5-2.4-2C174.8,41.4,173.6,41.2,172.2,41.2z"/>
		<path class="st0" d="M190.3,38.9c0.4,0.2,0.7,0.6,1,0.9c0.3,0.4,0.6,0.8,0.8,1.3c1-0.7,2.2-1.2,3.6-1.7c1.4-0.5,2.8-0.7,4.1-0.7
			c2.6,0,4.6,0.7,6,2s2.1,3.1,2.1,5.5v10.6c0,0.6,0,1.1,0.1,1.5s0.1,0.8,0.2,1.1c0.4,0,0.8,0.1,1.3,0.1s1,0,1.5,0
			c0.2,0,0.4,0.1,0.5,0.2c0.1,0.1,0.2,0.3,0.2,0.5v0.2c0,0.2,0,0.3-0.1,0.5c-0.1,0.1-0.2,0.2-0.3,0.3c-0.3,0.1-0.7,0.2-1.1,0.4
			c-0.4,0.1-0.9,0.2-1.4,0.2c-1.1,0-1.9-0.3-2.5-1c-0.6-0.6-0.9-1.5-0.9-2.6V47.1c0-2-0.5-3.5-1.6-4.5c-1-0.9-2.6-1.4-4.7-1.4
			c-1.1,0-2.1,0.2-3.2,0.5c-1.1,0.3-2.2,0.8-3.4,1.3c0,0.3,0.1,0.8,0.1,1.3c0.1,0.5,0.1,1.1,0.1,1.6v14.7c0,0.2-0.1,0.4-0.2,0.5
			c-0.1,0.1-0.3,0.2-0.5,0.2h-1.1c-0.2,0-0.4-0.1-0.5-0.2c-0.1-0.1-0.2-0.3-0.2-0.5v-14c0-1.5-0.1-2.6-0.4-3.5
			c-0.3-0.8-0.7-1.6-1.4-2.4c-0.1-0.2-0.2-0.3-0.2-0.5s0.1-0.3,0.3-0.5l0.9-0.7c0.1-0.1,0.3-0.2,0.4-0.2
			C190,38.8,190.1,38.8,190.3,38.9z"/>
		<path class="st0" d="M235.4,61.2c-0.3,0.1-0.7,0.2-1.1,0.4c-0.4,0.1-0.9,0.2-1.3,0.2c-1.1,0-2-0.3-2.8-0.8
			c-0.7-0.5-1.4-1.3-1.9-2.5l-4-7.5h-4.9v9.7c0,0.2-0.1,0.4-0.2,0.5c-0.1,0.1-0.3,0.2-0.5,0.2h-1.1c-0.2,0-0.4-0.1-0.5-0.2
			c-0.1-0.1-0.2-0.3-0.2-0.5V29.4c0-0.2,0.1-0.4,0.2-0.5c0.1-0.1,0.3-0.2,0.5-0.2l1.1-0.2c0.2,0,0.4,0,0.5,0.1s0.2,0.3,0.2,0.5v19.6
			h5.3c1-1,2.1-2.1,3.2-3.2c1.1-1.1,2-2,2.5-2.6v-3.2c0-0.2,0.1-0.4,0.2-0.5c0.1-0.1,0.2-0.2,0.4-0.2l0.8-0.2c0.2,0,0.3,0,0.5,0
			s0.3,0.1,0.3,0.2c0.1,0.3,0.2,0.6,0.4,0.9c0.1,0.4,0.2,0.7,0.2,1.1c0,1.1-0.3,1.9-0.8,2.5s-1.2,1.4-2.1,2.3l-3.8,3.9l3.5,6.5
			c0.3,0.7,0.6,1.2,0.9,1.7c0.3,0.5,0.6,0.9,0.9,1.3c0.6,0,1.1,0.1,1.6,0.1s1.1,0.1,1.6,0.1c0.2,0,0.4,0.1,0.5,0.2
			c0.1,0.1,0.2,0.3,0.2,0.5v0.2c0,0.2,0,0.3-0.1,0.5C235.7,61,235.6,61.1,235.4,61.2z"/>
		<path class="st0" d="M238.2,71.4c-0.2,0.1-0.4,0.1-0.5,0.1s-0.3-0.2-0.4-0.3l-0.4-0.6c-0.1-0.2-0.2-0.4-0.1-0.5
			c0-0.2,0.2-0.3,0.3-0.4c0.8-0.5,1.7-1.1,2.5-1.6c0.8-0.6,1.5-1.1,2.2-1.7c0.3-0.4,0.7-1.1,1.2-2s1.1-2,1.6-3.1l-8.1-21.2
			c-0.1-0.2-0.1-0.4,0-0.5c0.1-0.2,0.2-0.2,0.5-0.3l1-0.3c0.2,0,0.4,0,0.5,0.1s0.2,0.2,0.3,0.4l7.3,18.7l2.1-4.1
			c0.9-1.8,1.8-3.6,2.6-5.4c0.8-1.8,1.4-3.3,1.9-4.6c0-0.9,0-1.7-0.1-2.4c-0.1-0.6-0.2-1.3-0.3-1.9c0-0.2,0-0.4,0.1-0.5
			c0.1-0.2,0.2-0.2,0.4-0.3l0.9-0.2c0.2,0,0.3,0,0.5,0s0.3,0.1,0.4,0.2c0.2,0.3,0.5,0.7,0.7,1.2s0.3,1,0.3,1.6
			c0,1.1-0.4,2.6-1.2,4.4c-0.8,1.9-1.6,3.7-2.6,5.6l-6.6,12.9c-0.4,0.8-0.8,1.5-1.2,2.1s-0.8,1.1-1.3,1.6s-1.1,0.9-1.9,1.4
			C240.2,70.5,239.3,71,238.2,71.4z"/>
		<path class="st0" d="M262.1,38.9c0.4,0.2,0.7,0.6,1,0.9c0.3,0.4,0.6,0.8,0.8,1.3c0.9-0.7,2.1-1.2,3.4-1.7s2.6-0.7,4-0.7
			s2.6,0.2,3.7,0.6c1.1,0.4,2.1,1.1,2.9,2.1c1.2-0.8,2.5-1.5,3.9-2s2.7-0.7,4-0.7c2.5,0,4.5,0.7,5.8,2s2,3.1,2,5.5v10.6
			c0,0.6,0,1.1,0.1,1.5s0.2,0.8,0.2,1.1c0.4,0,0.8,0.1,1.3,0.1s1,0,1.5,0c0.2,0,0.4,0.1,0.5,0.2c0.1,0.1,0.2,0.3,0.2,0.5v0.2
			c0,0.2,0,0.3-0.1,0.5c-0.1,0.1-0.2,0.2-0.4,0.3c-0.3,0.1-0.7,0.2-1.1,0.4c-0.4,0.1-0.9,0.2-1.3,0.2c-1.1,0-1.9-0.3-2.5-1
			c-0.6-0.6-0.9-1.5-0.9-2.6V47.1c0-2-0.5-3.5-1.5-4.5c-1-0.9-2.4-1.4-4.2-1.4c-1.1,0-2.3,0.2-3.4,0.6c-1.2,0.4-2.2,0.9-3.2,1.4
			c0.1,0.3,0.2,0.7,0.3,1.2c0.1,0.5,0.1,1,0.1,1.5v14.7c0,0.2-0.1,0.4-0.2,0.5s-0.3,0.2-0.5,0.2h-1.1c-0.2,0-0.4-0.1-0.5-0.2
			c-0.1-0.1-0.2-0.3-0.2-0.5v-14c0-1.9-0.5-3.2-1.4-4.1c-0.9-0.9-2.4-1.3-4.5-1.3c-1.1,0-2.2,0.2-3.2,0.5s-2.1,0.8-3.2,1.3
			c0,0.3,0.1,0.8,0.1,1.3c0.1,0.5,0.1,1.1,0.1,1.6v14.7c0,0.2-0.1,0.4-0.2,0.5s-0.3,0.2-0.5,0.2h-1.1c-0.2,0-0.4-0.1-0.5-0.2
			c-0.1-0.1-0.2-0.3-0.2-0.5v-14c0-1.5-0.1-2.6-0.4-3.5c-0.3-0.8-0.7-1.6-1.4-2.4c-0.1-0.2-0.2-0.3-0.2-0.5s0.1-0.3,0.3-0.5l0.9-0.7
			c0.1-0.1,0.3-0.2,0.4-0.2C261.8,38.8,261.9,38.8,262.1,38.9z"/>
		<path class="st0" d="M311.2,61.8c-3.2,0-5.7-1-7.4-3.1c-1.7-2.1-2.6-4.8-2.6-8.2c0-3.6,0.9-6.4,2.7-8.6c1.8-2.1,4.3-3.2,7.5-3.2
			c2.4,0,4.3,0.7,5.8,2.1c1.5,1.4,2.2,3.4,2.2,6c0,0.5,0,0.9-0.1,1.5c0,0.5-0.1,1.1-0.3,1.7c0,0.2-0.1,0.4-0.2,0.5s-0.3,0.1-0.5,0.1
			l-14.5,0.2c0,1.2,0.1,2.3,0.4,3.3s0.7,1.9,1.4,2.7c0.6,0.8,1.4,1.4,2.4,1.8c1,0.5,2.2,0.7,3.5,0.7c1.2,0,2.3-0.1,3.3-0.4
			c1-0.3,1.9-0.6,2.8-1.1c0.2-0.1,0.4-0.1,0.5-0.1c0.2,0,0.3,0.2,0.4,0.4l0.2,0.5c0.1,0.2,0.1,0.4,0.1,0.5c0,0.2-0.1,0.3-0.3,0.4
			c-0.8,0.6-1.8,1.1-3,1.5C314.2,61.5,312.8,61.8,311.2,61.8z M306,42.6c-0.7,0.8-1.2,1.8-1.5,2.8c-0.3,1.1-0.5,2.2-0.6,3.3
			l12.7-0.4c0.1-0.3,0.1-0.6,0.1-0.8c0-0.3,0-0.5,0-0.8c0-1.6-0.4-2.9-1.3-4s-2.3-1.6-4.2-1.6c-1,0-1.9,0.1-2.8,0.3
			C307.5,41.8,306.7,42.1,306,42.6z"/>
		<path class="st0" d="M339,59.6c-0.6,0.6-1.4,1.1-2.4,1.5c-1,0.5-2.1,0.7-3.5,0.7c-1.8,0-3.3-0.5-4.6-1.6c-1.3-1.1-1.9-2.9-1.9-5.5
			V41.9h-3.3c-0.2,0-0.4-0.1-0.5-0.2c-0.1-0.1-0.2-0.3-0.2-0.5v-0.5c0-0.2,0.1-0.4,0.2-0.5s0.3-0.2,0.5-0.2l3.3-0.4v-0.5l0.4-4.4
			c0-0.2,0.1-0.3,0.2-0.5c0.1-0.1,0.2-0.2,0.4-0.2l0.7-0.1c0.2,0,0.4,0,0.5,0.1s0.2,0.3,0.2,0.5v5.1h8.1c0.2,0,0.4,0.1,0.5,0.2
			c0.1,0.1,0.2,0.3,0.2,0.5v0.9c0,0.2-0.1,0.4-0.2,0.5s-0.3,0.2-0.5,0.2H329v12.2c0,1.9,0.4,3.3,1.2,4c0.8,0.8,1.9,1.2,3.2,1.2
			c0.9,0,1.7-0.1,2.4-0.4c0.7-0.3,1.3-0.6,1.8-0.9c0.2-0.1,0.4-0.2,0.5-0.1c0.2,0,0.3,0.1,0.4,0.3l0.4,0.5c0.1,0.2,0.2,0.3,0.2,0.5
			C339.3,59.2,339.2,59.4,339,59.6z"/>
		<path class="st0" d="M352.6,61.8c-3.2,0-5.7-1-7.4-3.1c-1.7-2.1-2.6-4.8-2.6-8.2c0-3.6,0.9-6.4,2.7-8.6c1.8-2.1,4.3-3.2,7.5-3.2
			c2.4,0,4.3,0.7,5.8,2.1c1.5,1.4,2.2,3.4,2.2,6c0,0.5,0,0.9-0.1,1.5c0,0.5-0.1,1.1-0.3,1.7c0,0.2-0.1,0.4-0.2,0.5s-0.3,0.1-0.5,0.1
			l-14.5,0.2c0,1.2,0.1,2.3,0.4,3.3s0.7,1.9,1.4,2.7c0.6,0.8,1.4,1.4,2.4,1.8c1,0.5,2.2,0.7,3.5,0.7c1.2,0,2.3-0.1,3.3-0.4
			c1-0.3,1.9-0.6,2.8-1.1c0.2-0.1,0.4-0.1,0.5-0.1c0.2,0,0.3,0.2,0.4,0.4l0.2,0.5c0.1,0.2,0.1,0.4,0.1,0.5c0,0.2-0.1,0.3-0.3,0.4
			c-0.8,0.6-1.8,1.1-3,1.5C355.7,61.5,354.2,61.8,352.6,61.8z M347.4,42.6c-0.7,0.8-1.2,1.8-1.5,2.8c-0.3,1.1-0.5,2.2-0.6,3.3
			l12.7-0.4c0.1-0.3,0.1-0.6,0.1-0.8c0-0.3,0-0.5,0-0.8c0-1.6-0.4-2.9-1.3-4s-2.3-1.6-4.2-1.6c-1,0-1.9,0.1-2.8,0.3
			C348.9,41.8,348.1,42.1,347.4,42.6z"/>
		<path class="st0" d="M371,60.6c0,0.2-0.1,0.4-0.2,0.5s-0.3,0.2-0.5,0.2h-1.1c-0.2,0-0.4-0.1-0.5-0.2c-0.1-0.1-0.2-0.3-0.2-0.5v-14
			c0-1.5-0.1-2.6-0.4-3.5c-0.3-0.8-0.7-1.6-1.4-2.4c-0.1-0.2-0.2-0.3-0.2-0.5s0.1-0.3,0.3-0.5l0.9-0.7c0.2-0.1,0.3-0.2,0.4-0.2
			s0.2,0,0.3,0c0.6,0.4,1.1,0.9,1.4,1.5c0.4,0.6,0.7,1.4,0.9,2.3c1.4-1.2,2.6-2.1,3.7-2.8s2.2-1.1,3.3-1.1c0.4,0,0.8,0.1,1.1,0.2
			c0.3,0.1,0.6,0.3,0.9,0.4c0.1,0.1,0.2,0.2,0.2,0.4c0,0.1,0.1,0.3,0,0.5l-0.2,1.1c0,0.2-0.1,0.4-0.2,0.5s-0.3,0.1-0.5,0.1h-3.3
			c-0.8,0.4-1.6,0.8-2.4,1.3s-1.6,1-2.3,1.5c0,0.2,0,0.4,0,0.6c0,0.2,0,0.4,0,0.6L371,60.6L371,60.6z"/>
	</g>
	<g>
		<path class="st0" d="M62.4,24.3L62.4,24.3c1.8-0.2,3.5-0.2,5.1-0.1c0.7,0.1,1.3-0.5,1.4-1.2s-0.5-1.3-1.2-1.4
			c-1.8-0.1-3.7-0.1-5.5,0.1c-0.7,0.1-1.2,0.7-1.1,1.4C61.2,23.8,61.7,24.3,62.4,24.3z"/>
		<path class="st0" d="M105.4,44.4c0-7.4-6-13.4-13.4-13.4c-1.6,0-3.1,0.3-4.6,0.8c-3.6-4.4-8.6-7.7-14.1-9.3
			c-0.7-0.2-1.4,0.2-1.6,0.9c-0.2,0.7,0.2,1.4,0.9,1.6c5.3,1.5,10,4.8,13.4,9.2c3.5,4.5,5.3,10,5.3,15.7c0,10-5.7,18.6-13.9,22.9
			c2-2.6,3-5.7,3-9c0-0.4,0-0.8-0.1-1.2c-0.1-1.1,0.4-2.2,1.3-2.8c3.8-2.5,6-7,5.7-11.5c-0.2-3.2-1.6-6.1-3.8-8.4
			c-2.3-2.2-5.3-3.5-8.4-3.7c-2.4-0.1-4.7,0.4-6.7,1.5c-1.5,0.8-3.2,0.8-4.7,0c-2.1-1.1-4.4-1.6-6.7-1.5c-6.6,0.4-12,5.8-12.3,12.3
			c-0.2,4.3,1.7,8.4,5.2,10.9c0.8,0.6,1.3,1.7,1.2,2.8C51,63.1,51,64,51,64.8c0.2,3.1,1.4,6,3.3,8.4c-8.7-4.2-14.7-13-14.7-23.3
			c0-5.6,1.8-11,5.2-15.5c3.3-4.4,7.9-7.6,13.1-9.2c0.7-0.2,1.1-0.9,0.9-1.6c-0.2-0.7-0.9-1.1-1.6-0.9c-5.2,1.6-10,4.8-13.5,9
			c-1.4-0.5-2.8-0.7-4.3-0.7C32,31,26,37,26,44.4c0,7,5.3,12.7,12.1,13.3C41.2,68.6,50.6,76.8,62,78.2c1,0.3,2,0.4,3,0.4
			c0.2,0,0.4,0,0.6,0c1.4,0,2.8-0.2,4.1-0.6c11-1.7,20-9.8,23-20.3C99.8,57.3,105.4,51.5,105.4,44.4z M28.6,44.4
			c0-5.9,4.8-10.8,10.8-10.8c0.9,0,1.8,0.1,2.6,0.3c-3.2,4.7-4.9,10.2-4.9,16c0,1.7,0.2,3.4,0.5,5.1C32.5,54.1,28.6,49.7,28.6,44.4z
			 M53.6,64.6c0-0.7,0-1.4,0-2.1c0.2-2-0.6-4-2.2-5.2c-2.8-2-4.3-5.3-4.1-8.7c0.2-5.2,4.5-9.5,9.8-9.8c0.2,0,0.3,0,0.5,0
			c1.7,0,3.4,0.4,4.9,1.2c2.3,1.2,4.9,1.2,7.2,0c1.6-0.9,3.5-1.3,5.4-1.2c5.2,0.2,9.5,4.5,9.8,9.6c0.2,3.7-1.5,7.1-4.6,9.2
			c-1.7,1.1-2.6,3.1-2.4,5.2c0,0.3,0,0.7,0,1c0,3.3-1.3,6.4-3.7,8.7c-1.4,1.3-3.1,2.3-4.9,2.9c-1.2,0.2-2.5,0.3-3.8,0.3
			c-1,0-1.9-0.1-2.9-0.2C57.7,74.2,53.9,69.9,53.6,64.6z M93.5,55c0.3-1.7,0.5-3.4,0.5-5.1c0-5.7-1.7-11.2-4.8-15.9
			c1-0.3,2-0.4,3-0.4c5.9,0,10.8,4.8,10.8,10.8C102.8,49.8,98.7,54.3,93.5,55z"/>
		<path class="st0" d="M94.2,38.3c-0.7,0-1.3,0.6-1.3,1.3s0.6,1.3,1.3,1.3c1.9,0,3.5,1.6,3.5,3.5c0,0.9-0.4,1.8-1,2.5
			c-0.5,0.5-0.5,1.3,0,1.8c0.3,0.3,0.6,0.4,0.9,0.4s0.7-0.1,0.9-0.4c1.2-1.2,1.8-2.7,1.8-4.3C100.3,41,97.5,38.3,94.2,38.3z"/>
		<path class="st0" d="M33.7,44.4c0-1.9,1.6-3.5,3.5-3.5c0.7,0,1.3-0.6,1.3-1.3s-0.6-1.3-1.3-1.3c-3.4,0-6.1,2.7-6.1,6.1
			c0,1.6,0.6,3.2,1.8,4.3c0.3,0.3,0.6,0.4,0.9,0.4c0.3,0,0.7-0.1,0.9-0.4c0.5-0.5,0.5-1.3,0-1.8C34.1,46.2,33.7,45.3,33.7,44.4z"/>
		<path class="st0" d="M56.1,46.4c-2.2,0-4,1.8-4,4c0,0.7,0.6,1.3,1.3,1.3s1.3-0.6,1.3-1.3c0-0.8,0.6-1.4,1.4-1.4
			c0.8,0,1.4,0.6,1.4,1.4c0,0.7,0.6,1.3,1.3,1.3s1.3-0.6,1.3-1.3C60.1,48.2,58.3,46.4,56.1,46.4z"/>
		<path class="st0" d="M72.4,51.7c0.7,0,1.3-0.6,1.3-1.3c0-0.8,0.6-1.4,1.4-1.4s1.4,0.6,1.4,1.4c0,0.7,0.6,1.3,1.3,1.3
			s1.3-0.6,1.3-1.3c0-2.2-1.8-4-4-4s-4,1.8-4,4C71.1,51.1,71.7,51.7,72.4,51.7z"/>
		<path class="st0" d="M67.4,64c0-0.8,0.6-1.4,1.4-1.4c0.7,0,1.3-0.6,1.3-1.3S69.5,60,68.8,60c-1,0-2,0.4-2.7,1.1
			c-0.7-0.7-1.7-1.1-2.7-1.1c-0.7,0-1.3,0.6-1.3,1.3s0.6,1.3,1.3,1.3c0.8,0,1.4,0.6,1.4,1.4c0,0.7,0.6,1.3,1.3,1.3
			S67.4,64.7,67.4,64z"/>
	</g>
</g>
</svg>
