<svg xmlns="http://www.w3.org/2000/svg" viewBox="0 0 19.67 16.24"><defs><style>.cls-1{fill:#009cde;}</style></defs><g id="Capa_2" data-name="Capa 2"><g id="Capa_1-2" data-name="Capa 1"><path class="cls-1" d="M17,0H2.68A2.69,2.69,0,0,0,0,2.71V13.53a2.69,2.69,0,0,0,2.68,2.71H17a2.69,2.69,0,0,0,2.68-2.71V2.71A2.69,2.69,0,0,0,17,0ZM2.68,1.8H17a.87.87,0,0,1,.79.51L9.84,7.92,1.89,2.31A.89.89,0,0,1,2.68,1.8ZM17,14.44H2.68a.9.9,0,0,1-.89-.91V4.44L9.32,9.76a.92.92,0,0,0,.52.17.89.89,0,0,0,.51-.17l7.53-5.32v9.09A.9.9,0,0,1,17,14.44Z"/></g></g></svg>