<svg xmlns="http://www.w3.org/2000/svg" viewBox="0 0 50 50"><defs><style>.cls-1{fill:#009cde;}.cls-2{fill:#fff;}</style></defs><g id="Capa_2" data-name="Capa 2"><g id="Capa_1-2" data-name="Capa 1"><circle class="cls-1" cx="25" cy="25" r="25"/><path class="cls-2" d="M27,40H21.62a1.36,1.36,0,0,1-1.35-1.36V29.09h-2.7a1.36,1.36,0,0,1-1.35-1.36V22.27a1.36,1.36,0,0,1,1.35-1.36h2.7V18.18A8.16,8.16,0,0,1,28.38,10h4.05a1.35,1.35,0,0,1,1.35,1.36v5.46a1.35,1.35,0,0,1-1.35,1.36H28.38v2.73h4.05a1.34,1.34,0,0,1,1.06.52,1.37,1.37,0,0,1,.25,1.17l-1.35,5.46a1.36,1.36,0,0,1-1.31,1h-2.7v9.55A1.36,1.36,0,0,1,27,40ZM23,37.27h2.71V27.73A1.36,1.36,0,0,1,27,26.36h3l.68-2.72H27a1.36,1.36,0,0,1-1.35-1.37V18.18a2.72,2.72,0,0,1,2.7-2.73h2.7V12.73h-2.7A5.44,5.44,0,0,0,23,18.18v4.09a1.36,1.36,0,0,1-1.35,1.37h-2.7v2.72h2.7A1.36,1.36,0,0,1,23,27.73Z"/></g></g></svg>