<svg xmlns="http://www.w3.org/2000/svg" viewBox="0 0 50 50"><defs><style>.cls-1{fill:#009cde;}</style></defs><g id="Capa_2" data-name="Capa 2"><g id="Capa_1-2" data-name="Capa 1"><path class="cls-1" d="M24.54,0A25,25,0,1,0,50,24.54,25,25,0,0,0,24.54,0Zm.84,45.45A20.45,20.45,0,1,1,45.45,24.62,20.47,20.47,0,0,1,25.38,45.45ZM35.66,23.19l-9.25-8.92a2.28,2.28,0,0,0-3.16,3.28l5.31,5.11-12.69.24A2.27,2.27,0,1,0,16,27.44l12.7-.23-5.12,5.3a2.28,2.28,0,0,0,1.68,3.85,2.25,2.25,0,0,0,1.59-.69l8.92-9.26a2.19,2.19,0,0,0,.48-.75,2.26,2.26,0,0,0,0-1.73A2.23,2.23,0,0,0,35.66,23.19Z"/></g></g></svg>