<svg xmlns="http://www.w3.org/2000/svg" viewBox="0 0 50 50"><defs><style>.cls-1{fill:#009cde;}.cls-2{fill:#fff;}</style></defs><g id="Capa_2" data-name="Capa 2"><g id="Capa_1-2" data-name="Capa 1"><circle class="cls-1" cx="25" cy="25" r="25"/><path class="cls-2" d="M31.82,10H18.18A8.19,8.19,0,0,0,10,18.18V31.82A8.19,8.19,0,0,0,18.18,40H31.82A8.19,8.19,0,0,0,40,31.82V18.18A8.19,8.19,0,0,0,31.82,10Zm5.45,21.82a5.45,5.45,0,0,1-5.45,5.45H18.18a5.45,5.45,0,0,1-5.45-5.45V18.18a5.45,5.45,0,0,1,5.45-5.45H31.82a5.45,5.45,0,0,1,5.45,5.45ZM26.06,18.2a6.7,6.7,0,0,0-2,0A6.81,6.81,0,0,0,21,30.42a6.73,6.73,0,0,0,4,1.34,7,7,0,0,0,1-.07,6.82,6.82,0,0,0,0-13.49Zm2.28,9.18A4,4,0,0,1,25.66,29a4.09,4.09,0,1,1-1.2-8.1c.2,0,.4,0,.6,0s.4,0,.6,0a4.09,4.09,0,0,1,3.45,3.45A4,4,0,0,1,28.34,27.38Zm4.17-11.24h0a1.36,1.36,0,1,0,1.38,1.36A1.36,1.36,0,0,0,32.5,16.14Z"/></g></g></svg>