<svg xmlns="http://www.w3.org/2000/svg" viewBox="0 0 822.56 284"><defs><style>.cls-1{fill:#00adef;}.cls-2{fill:#fff;}.cls-3{fill:#8bd2f4;}.cls-4{fill:#0081c6;}</style></defs><g id="Capa_2" data-name="Capa 2"><g id="Capa_1-2" data-name="Capa 1"><path class="cls-1" d="M489.23,227.42l-.4-17c-.07-2.69-.22-5-.39-7l3.5-.73.29,4.47.16,0c1.46-3.66,4-6,7.07-6.61,3.54-.75,5.68,1.14,6.5,4a10.1,10.1,0,0,1,7.39-7c2.67-.59,5.94.54,6.87,4.87a23.78,23.78,0,0,1,.46,4l.35,14.17-3.88.82-.36-13.84a15.59,15.59,0,0,0-.3-3c-.54-2.42-1.78-3.83-4.34-3.28-2.87.61-5.54,4.69-5.4,10l.28,12.32-3.82.8-.32-14.07a15.31,15.31,0,0,0-.31-2.88c-.42-1.94-1.37-3.84-4.29-3.21s-5.66,5.19-5.54,10.3l.36,12Z"/><path class="cls-1" d="M543.13,215.93a55.5,55.5,0,0,1-.77-6.07l-.08,0c-1.52,5.29-4.31,7.69-7.59,8.39-4.07.86-7.34-1.83-8.28-6.21-1.7-8,2.4-17.76,12.49-19.91a22.19,22.19,0,0,1,6.39-.41l.22,12.51a53.43,53.43,0,0,0,1.29,10.9Zm-1.74-20.66a11.33,11.33,0,0,0-2.84.26c-6,1.28-9.49,8.57-8.17,14.95.56,2.57,2,4.91,5,4.24,3.3-.71,6.29-5.81,6.14-12.21Zm1.76-13.51-4.95,8.16-3.1.69,3.26-7.84Z"/><path class="cls-1" d="M552.05,209.84a10.45,10.45,0,0,0,5.27.37c2.66-.55,4-2.65,3.58-4.68-.39-1.83-1.43-2.76-4.11-3.58-3-.89-4.89-2.64-5.39-5-.87-4,1.94-7.89,6.82-8.94a9.87,9.87,0,0,1,5.06.12l-.45,3.25a8.57,8.57,0,0,0-4.23-.2c-2.38.52-3.79,2.36-3.37,4.35.37,1.67,1.68,2.5,4,3.2,2.9.91,5.09,2.55,5.63,5.14,1,4.86-2.32,8.45-7.19,9.5a10.57,10.57,0,0,1-6.08-.41Z"/><path class="cls-1" d="M579.33,184.09,584.28,196c1.1,2.54,1.74,4.19,2.34,5.87l.11,0c.3-1.58.62-3.37,1.26-6.13l3.12-14.12,4.21-.92-4.88,19.39c-1.41,5.54-2.88,10.08-5.38,13.81a15.18,15.18,0,0,1-5.88,5.46l-1.68-3.2a15.75,15.75,0,0,0,3.77-3.15,18,18,0,0,0,3.3-6.23,1.6,1.6,0,0,0-.07-1.07L575.23,185Z"/><path class="cls-1" d="M609,201.89l-.4-17c-.07-2.66-.21-5-.4-6.94l3.5-.73.3,4.48.15-.05c1.46-3.64,4-5.95,7.09-6.6,3.52-.75,5.67,1.15,6.49,4a10.1,10.1,0,0,1,7.39-7c2.67-.56,5.95.52,6.86,4.87a21,21,0,0,1,.46,4l.35,14.19-3.87.82-.34-13.84a15.94,15.94,0,0,0-.34-3.07c-.5-2.41-1.75-3.82-4.33-3.24-2.87.61-5.52,4.68-5.38,10l.27,12.31-3.83.81-.31-14.09a13.46,13.46,0,0,0-.32-2.86c-.41-2-1.36-3.85-4.28-3.24s-5.67,5.21-5.54,10.32l.35,12Z"/><path class="cls-1" d="M663.87,188.8a16.38,16.38,0,0,1-7.22,3.47c-6.11,1.3-9.68-2.31-10.78-7.42-1.49-6.94,2-15.92,9.45-17.51,4.39-.93,7.33,1.19,8,4.47,1.3,6.05-5.19,9.13-13.75,10.82a10,10,0,0,0,1.4,4.28,5.45,5.45,0,0,0,5.82,2,13.23,13.23,0,0,0,5.86-2.95Zm-4.31-16.08c-.4-1.85-2.06-2.59-4.16-2.16-3.77.81-5.8,5.08-6,8.92,6.21-1.29,10.91-3.12,10.15-6.72Z"/><path class="cls-1" d="M672.79,164.17l.52,23.89c.12,4-.17,6.64-1.23,8.43a7.37,7.37,0,0,1-4.8,3.39,9.21,9.21,0,0,1-2.71.27l-.18-3.2a8.4,8.4,0,0,0,1.85-.18c2-.42,3.3-2,3.21-7L668.84,165Zm-2-3.7a2.33,2.33,0,0,1-2.78-2,2.75,2.75,0,0,1,2-3.24,2.38,2.38,0,0,1,2.88,2,2.69,2.69,0,0,1-2.11,3.25Z"/><path class="cls-1" d="M699.14,168.08c1.5,7.09-2,15.57-9.7,17.21-5.78,1.23-9.93-2.37-11.07-7.56-1.61-7.57,2.18-15.76,9.68-17.37,6.26-1.32,10,2.79,11.09,7.72m-16.66,8.62c.78,3.78,3.43,6.05,6.8,5.33,4.7-1,7-7.75,5.79-13.14-.57-2.66-2.61-6.17-6.77-5.3-5,1.06-7,7.82-5.82,13.11"/><path class="cls-1" d="M704.89,181.45,704.53,166c-.06-3.12-.33-6.25-.57-8.46l3.51-.73c.13,1.66.27,3.32.44,5.13h.14c.78-3.46,2.79-6.4,5.88-7.05a7.71,7.71,0,0,1,1.12-.13l.06,4.07a6.62,6.62,0,0,0-1.07.12c-3.43.75-5.61,5.54-5.44,11.14l.24,10.55Z"/><path class="cls-1" d="M744.09,173.1a56.64,56.64,0,0,1-.75-6.07l-.1,0c-1.51,5.3-4.29,7.69-7.59,8.38-4.06.88-7.32-1.82-8.27-6.21-1.71-8,2.39-17.76,12.49-19.92a21.61,21.61,0,0,1,6.38-.37l.22,12.48a54.15,54.15,0,0,0,1.29,10.9Zm-1.73-20.68a11.06,11.06,0,0,0-2.85.27c-6,1.26-9.5,8.55-8.17,14.95.55,2.59,2,4.88,5,4.25,3.3-.7,6.3-5.82,6.14-12.21Z"/><path class="cls-1" d="M755,176.25a12.89,12.89,0,0,0,6.43.21c3.87-.82,6.51-3.47,6.55-10l0-3.62-.15,0c-1.29,3.73-3.77,5.94-7,6.62-4.61,1-7.84-2.42-8.72-6.52-1.72-7.8,2.4-16.8,11.33-18.7a19.47,19.47,0,0,1,7.74,0l.54,19.86c.09,5-.47,8.7-2.48,11.26a12.36,12.36,0,0,1-7.51,4.29,14.29,14.29,0,0,1-7.27-.12Zm12.38-28.67a9.48,9.48,0,0,0-4,.07c-5.76,1.23-8.44,8.07-7.28,13.81.54,2.51,2.1,5.32,5.62,4.56s6-5.74,5.81-10.44Z"/><path class="cls-1" d="M796.28,137.83l.39,17c.09,2.67.23,5,.39,7l-3.58.77-.3-4.48h-.1c-1.42,3.44-4.06,6-7.12,6.61s-6.36-.15-7.49-5.38a22,22,0,0,1-.39-4l-.32-13.57,4-.84.32,13.38a16.24,16.24,0,0,0,.29,3.47c.53,2.38,1.86,3.79,4.59,3.2s5.82-4.71,5.68-10l-.29-12.3Z"/><path class="cls-1" d="M818.88,157.16a56.54,56.54,0,0,1-.75-6.08l-.11,0c-1.49,5.29-4.28,7.67-7.57,8.38-4.06.87-7.33-1.83-8.27-6.21-1.72-8,2.4-17.75,12.47-19.89a22,22,0,0,1,6.41-.43l.22,12.52a53.41,53.41,0,0,0,1.28,10.89Zm-1.72-20.68a11.3,11.3,0,0,0-2.84.26c-6,1.27-9.5,8.55-8.18,15,.55,2.56,2,4.89,5,4.24,3.3-.74,6.3-5.85,6.12-12.23Z"/><path class="cls-2" d="M746.47,105.77a12.19,12.19,0,0,1,5.68,1.54,10.42,10.42,0,0,1,4.33,4.27,12,12,0,0,1,1.53,5.81,11.56,11.56,0,0,1-1.53,5.73,10.71,10.71,0,0,1-4.28,4.29,11.74,11.74,0,0,1-11.52,0,10.75,10.75,0,0,1-4.27-4.29,11.58,11.58,0,0,1-1.55-5.73,11.85,11.85,0,0,1,1.55-5.81,10.72,10.72,0,0,1,4.33-4.27,12.13,12.13,0,0,1,5.73-1.54m0,2a9.9,9.9,0,0,0-4.79,1.25,9.06,9.06,0,0,0-3.59,3.57,9.7,9.7,0,0,0-1.32,4.83,9.85,9.85,0,0,0,1.28,4.76,9,9,0,0,0,3.61,3.57,9.44,9.44,0,0,0,4.81,1.29,9.62,9.62,0,0,0,4.8-1.29,9,9,0,0,0,3.55-3.57,9.62,9.62,0,0,0,1.27-4.76,9.77,9.77,0,0,0-1.29-4.83,9.12,9.12,0,0,0-3.64-3.57,9.64,9.64,0,0,0-4.69-1.25m-5.08,16V111.33h4.27a12.28,12.28,0,0,1,3.18.31,3.4,3.4,0,0,1,2.17,3,3.26,3.26,0,0,1-1,2.39,3.66,3.66,0,0,1-2.58,1.12,4.29,4.29,0,0,1,1.07.68,14.56,14.56,0,0,1,1.83,2.45l1.51,2.44h-2.42l-1.13-2a9.68,9.68,0,0,0-2.09-2.85,2.46,2.46,0,0,0-1.63-.48h-1.17v5.3Zm2-7h2.43a3.94,3.94,0,0,0,2.4-.51,1.76,1.76,0,0,0-.52-3,6.76,6.76,0,0,0-2-.21h-2.3Z"/><path class="cls-2" d="M642.35,122.59v-32q0-13.24-5.54-20.6a24.65,24.65,0,0,0-13.63-9.45c-5.39-1.37-11.73-1.34-19,.2q-14.67,3-31.08,14.24v25.34c7.76-7.65,15.47-12.58,22.74-14.67,5.34-1.57,10.57-2.42,13.26-1.11,4.11,2,3.94,5,4,8.77q-49.47,16.7-49.48,45.35,0,12.71,8.78,19.72a22.94,22.94,0,0,0,19.92,4.69,27.33,27.33,0,0,0,10.93-5.14,47.86,47.86,0,0,0,9.85-10.52c.09,8.8,4.6,8.17,6.72,7.69s28.24-5.94,28.24-5.94c-3.72-1.43-6.69-5.22-5.75-26.56m-29.21-1.29a22.39,22.39,0,0,1-2.54,10.94,10.75,10.75,0,0,1-7.39,5.66,7.64,7.64,0,0,1-7.12-1.89,10,10,0,0,1-3.06-7.76q0-13.15,20.11-19.22Z"/><path class="cls-2" d="M332.73,143l-14.41,3v39c0,6,2.39,8.49,7.2,7.47a15.38,15.38,0,0,0,7.21-4.2v25.8a63.41,63.41,0,0,1-18,6.91c-9.9,2.06-17.17,1.19-21.8-2.48s-7-10.55-7-20.38V152.79l-11.63,2.45V131.78s9.6-2.05,11.7-2.45c-1.26-22.79,4.87-24.68,11.67-26.24l19.21-3.63v23.37l15.81-3.28Z"/><path class="cls-2" d="M539.86,45.15c-3,.88-14.31,5.4-14.65,25.45V174.67L542.52,171c3-.84,14.34-5.41,14.65-25.43V41.54Z"/><path class="cls-2" d="M509.08,95.27C503.08,87,495,83.87,484.92,86a27.66,27.66,0,0,0-11.84,5.69,40,40,0,0,0-8.49,9.88c0-4.48.58-8.89-4.3-8.26-5.05,1-28.76,6.13-28.76,6.13a7.5,7.5,0,0,1,1.55,4.22c.15,2.71-.09,135.28-.09,135.28l19.5-4.12c7-1.91,12.48-3,12.48-19l0-33.45a26.21,26.21,0,0,0,8.53,3.91,22.06,22.06,0,0,0,9.4,0c6.7-1.4,12.73-5,18.05-10.7a62.67,62.67,0,0,0,12.58-21.11,78.36,78.36,0,0,0,4.6-27c0-13.14-3-23.85-9-32.23M482.32,153c-2.1,4.55-5.09,7.22-8.9,8a8,8,0,0,1-4.81-.33,11.25,11.25,0,0,1-4-3.09V134.51c0-5.72.83-10.15,2.5-13.35a10.4,10.4,0,0,1,7.32-5.79c3.34-.66,6,.67,8.07,4.09s3,8.76,3,16-1.07,13-3.21,17.54"/><path class="cls-2" d="M712.43,128.72q-11,11.86-28.43,15.51c-9.77,2.05-20.15,1.41-31.33-1.79v-29c10.16,6.29,19,8.59,26.42,7.06a15.4,15.4,0,0,0,7.4-3.8,8.86,8.86,0,0,0,3-6.62,4.68,4.68,0,0,0-2.45-4.26c-1.61-.91-4.64-1.8-9.08-2.62-10.69-1.89-17.54-4.91-20.67-9.16a22.41,22.41,0,0,1-4.67-13.52c0-8.88,3.66-16.76,11-23.73a54.09,54.09,0,0,1,26.63-13.69,58.11,58.11,0,0,1,26.91.61V72q-11.1-7.26-21.24-5.15a15.15,15.15,0,0,0-6.86,3,6.3,6.3,0,0,0-2.29,5c0,2.83,3.31,4.59,9.87,5.34q26.79,3.26,26.83,22.88,0,13.78-11.07,25.61"/><path class="cls-2" d="M261.08,145.4q-12.58-10.4-32.32-6.23a51.66,51.66,0,0,0-32,20.79q-12.13,16.53-12.17,39c0,14.38,3.89,25.35,11.61,33s18.58,10,32.45,7.09,24.91-9.92,32.95-21,12.16-24,12.16-38.84q0-23.42-12.66-33.78M237.85,206q-3,6.89-9,8.14c-3.92.83-6.85-.63-8.8-4.42s-3-9.88-3-18.27,1-15,3-19.69,5-7.42,8.91-8.23,6.87.66,8.84,4.53,2.92,10,2.92,18.51-1,14.84-2.92,19.43"/><path class="cls-2" d="M413.84,113.94q-12.61-10.34-32.3-6.2a51.69,51.69,0,0,0-32.06,20.75q-12.14,16.57-12.14,39c0,14.36,3.9,25.35,11.61,33s18.57,10,32.45,7.12,24.87-9.94,33-21,12.12-24,12.12-38.86q0-23.46-12.64-33.79m-23.23,60.65c-2,4.6-4.95,7.3-8.94,8.15s-6.89-.65-8.83-4.47-2.95-9.89-2.95-18.23.95-15.06,3-19.69,4.93-7.42,8.87-8.26,6.89.68,8.86,4.52,2.92,10,2.92,18.56c0,8.39-1,14.8-2.92,19.42"/><path class="cls-2" d="M176.1,207.08c-1.67-7.71-6.46-14.9-13.39-16.91,11.77-6.27,21.36-17,21.36-37.24,0-10-4.51-20.5-10.95-24.62s-14-4.86-28.12-1.55c0,0-36.56,7.9-49.51,10.13,2.65.32,3.49,2,3.52,5s0,121.29,0,121.29l17.46-3.36c8.12-1.92,14.31-4.73,14.59-18.51l-.12-37.08,2.89-.61c4.17-.85,10.24-1.21,13.12,8.11,1.46,4.86,3.57,19.65,5.05,29.16s7.83,9.95,12.7,9.09,23.48-4.66,25.17-5.1c-8.47-2.09-11.43-27-13.74-37.84m-27.58-33.63a17.39,17.39,0,0,1-10.84,6.32l-6.59,1.35.15-27.47,8-1.59c4.37-.91,7.69-.53,9.81,1.2s3.23,4.67,3.19,8.92a18.16,18.16,0,0,1-3.77,11.27"/><path class="cls-3" d="M190.76,76.85a.6.6,0,0,1-.15-.14.84.84,0,0,0-.18-.15c-5.54-5.21-14.25-5.4-14.25-5.4a73.42,73.42,0,0,0-16.62.28C74.15,79.34,0,154.55,0,244.92,0,255.65,2.1,274.41,3.38,284l2.11-.46C4.89,278,4,265.87,4,260.18,4,174.59,74.33,104.45,158.5,104.45c5.73,0,17.21.81,21.15.73h.19a16.46,16.46,0,0,0,16-16.43,16.28,16.28,0,0,0-5-11.79.35.35,0,0,0-.09-.11"/><path class="cls-1" d="M216.9,32.67c-5.23-1.78-15.12-2.57-21.49-2.57-61.68,0-117.35,27.39-153.49,70.13-12.85,15.21-23.49,32.68-32.84,57.12l3.42-.8c9.73-19,20.54-33.17,33.32-45.51A174,174,0,0,1,169.66,62.39a228.57,228.57,0,0,1,24.89,2.18c6.84.91,13.11,2,16.31,2.24v0c.36,0,.72,0,1.07,0a17.43,17.43,0,0,0,5-34.14"/><path class="cls-4" d="M124,32.2c10-2.81,25-4.79,33-6.33a13,13,0,0,0-1-25.78c-4.42-.42-11,.66-17.73,2.29a125.4,125.4,0,0,0-32.5,12.94C71.27,36,57.12,59.86,47.85,76.78l3.3-.18C71.3,55.44,94,40.64,124,32.2"/></g></g></svg>