<svg xmlns="http://www.w3.org/2000/svg" viewBox="0 0 30 24.77"><defs><style>.cls-1{fill:#009cde;}</style></defs><g id="Capa_2" data-name="Capa 2"><g id="Capa_1-2" data-name="Capa 1"><path class="cls-1" d="M25.91,0H4.09A4.11,4.11,0,0,0,0,4.13V20.64a4.11,4.11,0,0,0,4.09,4.13H25.91A4.11,4.11,0,0,0,30,20.64V4.13A4.11,4.11,0,0,0,25.91,0ZM4.09,2.75H25.91a1.37,1.37,0,0,1,1.21.77L15,12.08,2.88,3.52A1.37,1.37,0,0,1,4.09,2.75ZM25.91,22H4.09a1.37,1.37,0,0,1-1.36-1.38V6.77l11.49,8.12a1.34,1.34,0,0,0,1.56,0L27.27,6.77V20.64A1.37,1.37,0,0,1,25.91,22Z"/></g></g></svg>