<svg xmlns="http://www.w3.org/2000/svg" viewBox="0 0 38.2 100"><defs><style>.cls-1{fill:#002554;}</style></defs><g id="Capa_2" data-name="Capa 2"><g id="Capa_1-2" data-name="Capa 1"><path class="cls-1" d="M19.09,21.28h0c-9.45,0-19,3-19.08,9.7v.07l.8,29a1.73,1.73,0,0,0,1.72,1.69h0A1.73,1.73,0,0,0,4.24,60l-.8-29c.05-2.14,2.4-3.56,4.38-4.36a31.18,31.18,0,0,1,11.26-1.87h0a31.47,31.47,0,0,1,11.27,1.86c2,.81,4.36,2.23,4.4,4.37L34,59.93a1.73,1.73,0,0,0,1.67,1.79h.05A1.73,1.73,0,0,0,37.42,60l.78-29V31C38.13,24.28,28.55,21.28,19.09,21.28Zm0,41.73a1.73,1.73,0,0,0-1.72,1.74V98.26a1.72,1.72,0,1,0,3.44,0V64.75A1.73,1.73,0,0,0,19.11,63Zm10.3-30a1.73,1.73,0,0,0-1.72,1.74V64.14l-1.7,34A1.73,1.73,0,0,0,27.62,100h.09a1.73,1.73,0,0,0,1.72-1.65l1.7-34.08V34.7A1.73,1.73,0,0,0,29.41,33ZM10.53,34.7a1.73,1.73,0,1,0-3.45,0V64.18s0,.06,0,.09l1.7,34.08A1.73,1.73,0,0,0,10.51,100h.09a1.73,1.73,0,0,0,1.63-1.83l-1.7-34ZM17.6,20.24l.14,0a8.62,8.62,0,0,0,1.37.13,8.83,8.83,0,0,0,1.38-.13l.13,0A9.17,9.17,0,0,0,26.45,16c1.16-2.13,1.54-7,1.36-9h0c-.38-4.12-4-7-8.7-7h0c-4.75,0-8.32,2.88-8.7,7-.18,2,.2,6.87,1.35,9A9.21,9.21,0,0,0,17.6,20.24ZM13.83,7.33c.25-2.66,2.83-3.85,5.28-3.85s5,1.19,5.27,3.85c.17,1.82-.3,5.82-.95,7a5.83,5.83,0,0,1-3.52,2.49,3.87,3.87,0,0,1-1.59,0,5.88,5.88,0,0,1-3.54-2.49C14.14,13.15,13.67,9.15,13.83,7.33Z"/></g></g></svg>