<svg xmlns="http://www.w3.org/2000/svg" viewBox="0 0 38.19 100"><defs><style>.cls-1{fill:#15e8e1;}</style></defs><g id="Capa_2" data-name="Capa 2"><g id="Capa_1-2" data-name="Capa 1"><g id="Capa_2-2" data-name="Capa 2"><g id="Capa_1-2-2" data-name="Capa 1-2"><path class="cls-1" d="M19.08,21.28h0c-9.45,0-19,3-19.08,9.7v.07l.8,29a1.73,1.73,0,0,0,1.72,1.69h0A1.73,1.73,0,0,0,4.23,60l-.8-29c0-2.14,2.4-3.56,4.38-4.36a31.3,31.3,0,0,1,11.26-1.87h0a31.57,31.57,0,0,1,11.27,1.86c2,.81,4.36,2.23,4.4,4.37L34,59.93a1.73,1.73,0,0,0,1.67,1.79h.05A1.74,1.74,0,0,0,37.41,60l.78-29h0C38.12,24.28,28.54,21.28,19.08,21.28Zm0,41.73a1.72,1.72,0,0,0-1.72,1.74h0V98.26a1.72,1.72,0,0,0,3.44,0h0V64.75A1.74,1.74,0,0,0,19.1,63Zm10.3-30a1.72,1.72,0,0,0-1.72,1.74h0V64.14l-1.7,34A1.74,1.74,0,0,0,27.55,100h.15a1.73,1.73,0,0,0,1.72-1.65l1.7-34.08V34.7A1.74,1.74,0,0,0,29.4,33ZM10.52,34.7a1.73,1.73,0,1,0-3.45-.26,1.13,1.13,0,0,0,0,.26V64.27l1.7,34.08A1.73,1.73,0,0,0,10.5,100h.09a1.73,1.73,0,0,0,1.63-1.82h0l-1.7-34Zm7.07-14.46h.14a9,9,0,0,0,1.37.13,9.2,9.2,0,0,0,1.38-.13h.13A9.17,9.17,0,0,0,26.44,16C27.6,13.87,28,9,27.8,7h0c-.38-4.12-4-7-8.7-7h0c-4.75,0-8.32,2.88-8.7,7-.18,2,.2,6.87,1.35,9A9.22,9.22,0,0,0,17.59,20.24ZM13.82,7.33c.25-2.66,2.83-3.85,5.28-3.85s5,1.19,5.27,3.85c.17,1.82-.3,5.82-.95,7a5.82,5.82,0,0,1-3.52,2.49,3.87,3.87,0,0,1-1.59,0,5.89,5.89,0,0,1-3.54-2.49C14.13,13.15,13.66,9.15,13.82,7.33Z"/></g></g></g></g></svg>