<svg xmlns="http://www.w3.org/2000/svg" viewBox="0 0 16.79 20"><defs><style>.cls-1{fill:#009cde;}</style></defs><g id="Capa_2" data-name="Capa 2"><g id="Capa_1-2" data-name="Capa 1"><path class="cls-1" d="M8.4,0A8.38,8.38,0,0,0,0,8.33c0,6.21,7.61,11.32,7.93,11.53a.84.84,0,0,0,.93,0c.33-.21,7.93-5.32,7.93-11.53A8.37,8.37,0,0,0,8.4,0Zm0,18.14C6.8,17,1.68,12.84,1.68,8.33a6.72,6.72,0,0,1,13.43,0C15.11,12.84,10,17,8.4,18.14ZM8.4,5a3.34,3.34,0,1,0,3.36,3.33A3.35,3.35,0,0,0,8.4,5Zm0,5a1.67,1.67,0,1,1,1.68-1.67A1.68,1.68,0,0,1,8.4,10Z"/></g></g></svg>