<svg xmlns="http://www.w3.org/2000/svg" viewBox="0 0 17.92 20"><defs><style>.cls-1{fill:#009cde;}</style></defs><g id="Capa_2" data-name="Capa 2"><g id="Capa_1-2" data-name="Capa 1"><path class="cls-1" d="M14.82,20H3.1A3.11,3.11,0,0,1,0,16.88V6.69A1.86,1.86,0,0,1,1,5l3-1.53L4.7.68A.87.87,0,0,1,5.55,0h6.82a.87.87,0,0,1,.85.68l.63,2.8,3,1.53a1.86,1.86,0,0,1,1,1.68V16.88A3.11,3.11,0,0,1,14.82,20ZM6.24,1.75,5.68,4.27a.89.89,0,0,1-.46.59L1.81,6.57a.13.13,0,0,0-.07.12V16.88A1.36,1.36,0,0,0,3.1,18.25H14.82a1.36,1.36,0,0,0,1.36-1.37V6.69a.11.11,0,0,0-.07-.11L12.7,4.86a.89.89,0,0,1-.46-.59l-.56-2.52Z"/></g></g></svg>