<svg xmlns="http://www.w3.org/2000/svg" viewBox="0 0 27.11 27.22"><defs><style>.cls-1{fill:#009cde;}</style></defs><g id="Capa_2" data-name="Capa 2"><g id="Capa_1-2" data-name="Capa 1"><path class="cls-1" d="M23.37,27.22l-.32,0a25.81,25.81,0,0,1-11.24-4A25.67,25.67,0,0,1,4,15.38,25.94,25.94,0,0,1,0,4.08,3.71,3.71,0,0,1,3.38,0l.33,0H7.46a3.73,3.73,0,0,1,3.67,3.2,15.42,15.42,0,0,0,.8,3.23,3.74,3.74,0,0,1-.84,3.93l-.89.89a18.58,18.58,0,0,0,5.68,5.69l.89-.89a3.72,3.72,0,0,1,3.92-.84,14.37,14.37,0,0,0,3.21.8,3.72,3.72,0,0,1,3.21,3.77v3.71A3.73,3.73,0,0,1,26,26.12a3.65,3.65,0,0,1-2.62,1.1ZM7.45,2.48H3.71a1.31,1.31,0,0,0-1,.45,1.24,1.24,0,0,0-.28.91A23.43,23.43,0,0,0,6.09,14a23.2,23.2,0,0,0,7.05,7.07A23.36,23.36,0,0,0,23.3,24.73a1.09,1.09,0,0,0,1-.36,1.27,1.27,0,0,0,.36-.88V19.73a1.24,1.24,0,0,0-1.07-1.26,17.41,17.41,0,0,1-3.73-.93,1.22,1.22,0,0,0-1.31.27L17,19.39a1.26,1.26,0,0,1-1.49.2,21.22,21.22,0,0,1-7.9-7.92,1.25,1.25,0,0,1,.21-1.49L9.34,8.61A1.26,1.26,0,0,0,9.61,7.3a17.38,17.38,0,0,1-.93-3.76A1.25,1.25,0,0,0,7.45,2.48Z"/></g></g></svg>