<svg xmlns="http://www.w3.org/2000/svg" viewBox="0 0 50 50"><defs><style>.cls-1{fill:#009cde;}.cls-2{fill:#fff;}</style></defs><g id="Capa_2" data-name="Capa 2"><g id="Capa_1-2" data-name="Capa 1"><circle class="cls-1" cx="25" cy="25" r="25"/><path class="cls-2" d="M43,16.51a.44.44,0,0,0,0-.1,5.93,5.93,0,0,0-4.17-4.22C36,11.52,26.12,11.5,25,11.5s-11,0-13.84.77A5.91,5.91,0,0,0,7,16.58,45.19,45.19,0,0,0,6.28,25a46.28,46.28,0,0,0,.77,8.68,5.94,5.94,0,0,0,4.13,4c2.8.74,12.7.76,13.82.76s11,0,13.84-.77A5.91,5.91,0,0,0,43,33.42,46.13,46.13,0,0,0,43.72,25,45.93,45.93,0,0,0,43,16.51Zm-3,16.26a2.75,2.75,0,0,1-1.92,2c-1.82.48-8.78.66-13,.66s-11.19-.18-13-.66A2.75,2.75,0,0,1,10.09,33a42.58,42.58,0,0,1-.69-8,42.44,42.44,0,0,1,.67-7.79,2.75,2.75,0,0,1,1.91-2c1.83-.48,8.79-.66,13-.66,2.93,0,11,.11,13,.59a2.79,2.79,0,0,1,1.93,1.94A42.71,42.71,0,0,1,40.6,25,42.67,42.67,0,0,1,39.93,32.77Zm-8.7-9.08-9-5.06a1.58,1.58,0,0,0-1.56,0A1.52,1.52,0,0,0,19.93,20V30.09a1.52,1.52,0,0,0,.77,1.33,1.61,1.61,0,0,0,.79.21,1.5,1.5,0,0,0,.77-.2l9-5.06a1.53,1.53,0,0,0,0-2.68Zm-8.18,3.74v-4.8L27.3,25Z"/></g></g></svg>